<?xml version="1.0" encoding="UTF-8"?>
<svg width="385px" height="500px" viewBox="0 0 385 500" version="1.1" xmlns="http://www.w3.org/2000/svg" xmlns:xlink="http://www.w3.org/1999/xlink">
    <!-- Generator: Sketch 62 (91390) - https://sketch.com -->
    <title>20JaarQ-Smol-SVG</title>
    <desc>Created with Sketch.</desc>
    <g id="20-Jaar-Q42-Logo" stroke="none" stroke-width="1" fill="none" fill-rule="evenodd">
        <g id="Logo-Small" transform="translate(-345.000000, -231.000000)">
            <g id="20JaarQ-Smol" transform="translate(345.000000, 231.000000)">
                <path d="M166.603502,434.5342 C180.773502,432.914 194.920502,431.8552 208.994502,432.2323 C211.201502,432.3013 213.405502,432.303 215.607502,432.2481 C207.071502,451.8323 198.701502,474.1225 190.610502,500.0002 C182.832502,475.1239 174.796502,453.5628 166.603502,434.5342 Z M112.146502,338.499 C86.6865018,302.921 61.8115018,275.02 40.3585018,232.947 C-13.9374982,126.466 74.7415018,0 190.610502,0 C306.479502,0 395.158502,126.466 340.862502,232.947 C323.548502,266.902 304.006502,291.626 283.727502,318.604 C253.238502,322.641 222.538502,329.157 191.649502,331.759 C164.624502,334.005 138.324502,336.127 112.146502,338.499 Z" id="Fill-1" fill="#84BB25"></path>
                <path d="M36.3055018,407.621 C34.9155018,407.5 33.5245018,407.391 32.1315018,407.295 C25.5205018,406.843 9.36850176,409.179 3.89250176,407.033 C3.11550176,406.729 3.93550176,397.142 3.87350176,395.561 C3.36250176,382.424 20.5025018,378.395 19.9925018,365.283 C19.5425018,353.711 0.581501764,333.184 0.133501764,321.662 C0.123501764,321.395 -0.140498236,321.049 0.102501764,320.862 C0.932501764,320.222 20.9095018,324.79 23.8935018,325.073 C41.6185018,326.753 60.8515018,324.64 78.7305018,323.944 L89.2645018,337.356 C78.8135018,338.363 68.3575018,339.425 57.8575018,340.566 C51.1195018,341.36 45.2895018,343.34 38.5615018,345.574 C34.5325018,346.913 33.0445018,351.252 32.8185018,355.052 C32.1175018,366.865 34.7485018,378.603 35.5885018,390.213 C35.9885018,396.009 36.1995018,401.814 36.3055018,407.621 Z M39.3445018,345.345 L39.1255018,345.413 C39.1255018,345.413 40.0605018,345.245 39.3445018,345.345 Z" id="Fill-2" fill="#0093D8"></path>
                <path d="M349.306502,363.325 C353.408502,363.712 357.482502,363.953 361.498502,363.975 C364.363502,363.991 383.824502,361.437 384.543502,362.156 C384.754502,362.366 384.466502,362.684 384.427502,362.948 C382.760502,374.358 371.903502,394.026 370.228502,405.485 C368.330502,418.469 374.812502,423.031 372.910502,436.0393 C372.681502,437.6055 372.427502,447.2173 371.656502,447.4427 C366.225502,449.0305 351.140502,445.1011 344.813502,444.8931 C319.469502,444.06 294.245502,448.2992 268.880502,444.5918 C263.602502,443.8205 256.248502,443.2044 251.034502,444.1113 C250.355502,444.2294 242.764502,445.7045 242.373502,445.2891 C241.452502,444.3104 245.246502,438.4128 250.181502,431.757 C262.488502,429.803 274.782502,427.702 287.130502,427.372 C303.721502,426.963 320.325502,427.177 336.802502,426.129 C337.966502,426.051 339.072502,426.274 340.161502,426.113 C342.890502,425.71 343.263502,425.25 345.407502,422.621 L346.667502,420.005 C347.612502,417.243 347.949502,414.307 348.264502,411.386 C349.859502,396.557 350.553502,380.91 349.511502,365.966 C349.442502,365.088 349.373502,364.207 349.306502,363.325 Z" id="Fill-3" fill="#0093D8"></path>
                <path d="M113.994502,273.845 L155.355502,215.965 L174.150502,215.965 L174.150502,272.884 L185.492502,272.884 L185.492502,289.279 L174.150502,289.279 L174.150502,305.845 L155.461502,305.845 L155.461502,289.279 L113.994502,289.279 L113.994502,273.845 Z M155.461502,238.964 L132.761502,272.884 L155.461502,272.884 L155.461502,238.964 Z" id="Fill-4" fill="#FFFFFF"></path>
                <path d="M198.947502,247.781 C198.947502,247.781 198.806502,245.83 198.833502,243.596 C199.026502,227.395 210.817502,213.379 231.839502,213.379 C252.033502,213.379 264.426502,226.748 264.426502,242.485 C264.426502,254.186 258.020502,263.655 246.874502,270.479 L229.470502,281.059 C225.988502,283.281 223.064502,285.798 221.680502,289.279 L264.982502,289.279 L264.982502,305.845 L198.141502,305.845 C198.277502,289.971 203.289502,277.022 219.446502,267.271 L234.345502,258.358 C242.011502,253.767 245.073502,249.028 245.073502,242.769 C245.073502,236.215 240.468502,230.375 231.420502,230.375 C221.816502,230.375 217.076502,236.918 217.076502,245.41 C217.076502,247.077 217.146502,247.781 217.146502,247.781 L198.947502,247.781 Z" id="Fill-5" fill="#FFFFFF"></path>
                <path d="M190.575502,166.251 C162.908502,166.251 140.480502,143.823 140.480502,116.156 C140.480502,88.49 162.908502,66.061 190.575502,66.061 C218.242502,66.061 240.670502,88.49 240.670502,116.156 C240.670502,123.818 238.944502,131.075 235.868502,137.569 L214.752502,121.374 L198.354502,142.08 L218.652502,157.647 C210.643502,163.077 200.980502,166.251 190.575502,166.251 Z M280.402502,171.722 L260.975502,156.823 C267.902502,144.858 271.887502,130.976 271.887502,116.156 C271.887502,71.248 235.482502,34.844 190.575502,34.844 C145.668502,34.844 109.263502,71.248 109.263502,116.156 C109.263502,161.063 145.668502,197.468 190.575502,197.468 C211.130502,197.468 229.889502,189.825 244.207502,177.246 L264.005502,192.429 L280.402502,171.722 Z" id="Fill-6" fill="#FFFFFF"></path>
                <path d="M43.8765018,355.199 C43.8765018,355.199 57.4105018,350.959 61.7495018,350.51 C70.1955018,349.637 78.6415018,348.763 87.0875018,347.89 C109.326502,345.591 133.533502,343.881 155.826502,341.772 C187.750502,338.752 196.449502,339.062 222.400502,335.251 C242.423502,332.31 278.551502,325.97 296.937502,324.069 C308.944502,322.828 321.622502,320.249 338.456502,318.29 C339.389502,318.182 338.456502,325.057 338.456502,326.019 C338.456502,338.567 338.486502,350.993 339.519502,363.343 C339.994502,369.018 339.673502,412.02 336.536502,415.739 C335.255502,417.257 337.727502,414.305 336.536502,415.739 C335.717502,416.724 287.715502,417.189 282.492502,417.42 C243.890502,419.131 239.341502,426.248 209.833502,425.255 C182.769502,424.344 145.005502,431.2175 117.271502,434.0851 C102.052502,435.6586 94.6865018,437.0738 76.0235018,439.0637 C71.6895018,439.5259 51.0735018,444.3843 46.6855018,442.6618 C45.9755018,442.383 46.3645018,439.9911 46.3645018,439.291 C46.3645018,425.174 46.6805018,409.28 45.5865018,392.935 C44.9795018,383.868 40.7935018,355.518 43.8765018,355.199 Z" id="Fill-7" fill="#0093D8"></path>
                <path d="M65.5105018,419.952 C65.8235018,420.232 66.2145018,420.504 66.6835018,420.456 C66.9965018,420.423 67.1525018,420.407 67.5435018,420.132 L96.3185018,417.157 L97.1005018,416.451 L97.1005018,406.442 C97.4135018,405.393 97.4135018,404.924 97.4135018,403.907 C97.4135018,402.813 97.3355018,403.212 96.3185018,402.535 C96.0065018,402.567 94.5985018,402.634 94.2075018,402.675 C92.4875018,402.853 93.3475018,402.607 91.7055018,402.934 C91.3925018,403.044 88.4995018,403.5 88.1085018,403.54 C87.9525018,403.634 86.0755018,403.985 85.8405018,404.009 L85.6065018,404.033 C86.3885018,403.562 89.5165018,400.971 90.1415018,400.358 C90.4545018,400.092 93.6605018,396.632 94.7555018,395.424 C98.5865018,390.884 99.2905018,384.399 99.2905018,379.082 C99.2905018,378.457 99.2125018,375.806 99.2125018,375.259 C98.3515018,370.187 93.3475018,366.795 88.8125018,365.387 C68.4035018,364.369 63.7125018,376.818 63.7125018,383.308 C63.7125018,385.419 63.4775018,387.007 65.2755018,387.994 C68.0125018,389.51 70.2805018,389.979 73.6425018,389.632 L75.6755018,389.421 C77.3955018,388.852 78.1775018,387.521 79.1945018,386.164 L79.1945018,379.127 C79.1945018,378.658 80.6015018,378.434 80.9145018,378.402 C83.7295018,378.111 85.6065018,379.871 85.6065018,382.686 C85.6065018,389.098 76.6925018,393.226 72.7045018,397.001 C71.1405018,398.413 69.6545018,400.287 68.2475018,402.075 C68.0905018,402.247 67.9345018,402.498 67.7785018,402.671 C66.2145018,404.631 65.5885018,407.745 65.3545018,409.959 C65.3545018,410.584 65.2755018,413.408 65.2755018,414.033 C65.2755018,415.441 65.1975018,418.342 65.5105018,419.952 Z" id="Fill-8" fill="#FFFFFF"></path>
                <path d="M102.418502,395.649 C103.121502,400.189 103.825502,404.183 105.545502,408.227 C105.936502,408.969 106.327502,410.57 106.953502,411.288 C107.657502,412.231 108.751502,412.666 109.611502,413.28 C112.661502,415.155 115.711502,416.247 119.620502,415.842 C123.765502,415.414 127.205502,413.338 130.489502,410.653 C134.321502,407.441 135.025502,404.163 135.885502,399.773 L136.119502,398.81 C137.058502,394.569 137.449502,390.228 137.449502,386.162 C137.449502,383.425 136.823502,371.683 135.885502,369.825 C129.629502,357.96 112.114502,358.677 106.093502,372.671 C103.278502,379.217 102.418502,385.171 102.418502,392.052 L102.418502,395.649 Z M115.711502,394.04 C115.711502,390.521 116.023502,381.965 120.089502,379.746 C120.168502,379.738 120.950502,379.267 120.950502,379.267 L121.184502,379.242 C123.139502,379.04 124.156502,384.487 124.156502,385.269 L124.156502,385.738 C124.077502,389.969 124.937502,395.979 121.184502,399.573 C121.028502,399.745 120.559502,400.107 120.559502,400.107 L117.353502,400.438 C116.336502,400.543 115.711502,394.509 115.711502,394.04 Z" id="Fill-9" fill="#FFFFFF"></path>
                <path d="M161.689502,396.714 C161.689502,401.797 170.603502,405.41 174.591502,406.405 C175.998502,406.729 177.640502,406.559 178.970502,406.422 C187.806502,405.508 188.744502,396.575 189.526502,389.613 C189.526502,389.379 189.604502,389.058 189.604502,388.823 C189.917502,385.116 190.230502,381.408 190.230502,377.733 C190.230502,371.556 190.073502,364.238 189.526502,358.196 C189.135502,354.17 185.851502,354.432 182.567502,354.771 L179.908502,355.046 C178.031502,355.24 176.702502,356.003 176.389502,357.99 L176.389502,360.649 C176.389502,368.703 177.249502,377.668 177.249502,385.8 L177.249502,389.162 C177.249502,389.788 177.171502,392.064 176.076502,392.177 C175.998502,392.185 175.920502,392.193 175.920502,392.193 C175.842502,392.123 175.216502,391.562 175.060502,391.344 C174.747502,390.829 173.340502,388.159 173.105502,387.636 C172.714502,386.973 171.854502,385.967 170.916502,386.064 C168.648502,386.298 161.689502,395.15 161.689502,396.714 Z" id="Fill-10" fill="#FFFFFF"></path>
                <path d="M192.703502,404.505 C192.672502,405.449 193.159502,406.2 194.111502,406.133 C194.184502,406.128 194.331502,406.118 194.331502,406.118 C195.648502,406.025 201.877502,405.43 203.195502,405.338 C208.555502,404.49 207.423502,398.918 207.858502,394.571 C207.866502,394.335 208.064502,392.751 208.148502,392.431 C208.250502,391.561 209.834502,389.322 209.834502,389.322 C211.895502,388.863 213.112502,388.08 215.235502,387.93 C215.382502,387.92 215.748502,387.894 215.894502,387.884 C217.221502,389.753 215.761502,405.271 220.139502,405.434 C222.547502,405.5 224.231502,405.382 226.574502,405.217 C228.990502,405.048 231.742502,403.566 231.845502,400.419 C231.961502,396.879 231.479502,393.774 230.936502,390.28 C229.371502,380.108 229.813502,359.984 223.132502,352.134 C221.795502,350.58 220.210502,349.906 218.087502,350.056 C214.792502,350.287 209.851502,351.582 207.811502,352.563 C204.636502,354.09 200.786502,369.717 200.112502,372.432 C200.092502,373.062 198.823502,378.331 198.729502,378.966 C198.719502,379.28 197.797502,382.877 197.538502,384.073 C196.267502,389.421 194.632502,394.716 193.510502,399.975 C193.251502,401.17 192.747502,403.168 192.703502,404.505 Z M211.267502,373.623 C211.285502,373.072 211.415502,371.336 211.420502,371.179 C211.426502,371.021 211.780502,369.113 211.872502,368.557 C211.953502,368.316 212.117502,367.755 212.342502,367.582 C212.708502,367.556 214.473502,367.197 214.839502,367.171 C214.839502,367.171 215.205502,367.145 215.279502,367.14 C215.645502,367.114 216.889502,367.027 216.882502,367.263 L217.070502,368.191 L216.845502,375.036 L211.500502,375.411 L211.291502,375.112 C211.294502,375.034 211.257502,373.937 211.267502,373.623 Z" id="Fill-11" fill="#FFFFFF"></path>
                <path d="M235.895502,400.692 C235.895502,401.631 236.442502,402.356 237.459502,402.251 C237.537502,402.243 237.693502,402.227 237.693502,402.227 C239.101502,402.081 245.747502,401.238 247.155502,401.092 C252.863502,400.033 251.456502,394.548 251.768502,390.215 C251.768502,389.981 251.925502,388.401 252.003502,388.08 C252.081502,387.211 252.394502,385.146 252.394502,385.146 L252.628502,384.965 C254.818502,384.426 257.164502,383.558 259.431502,383.324 C259.588502,383.308 259.979502,383.267 260.135502,383.251 C261.621502,385.052 260.604502,398.528 265.296502,398.513 C267.876502,398.48 269.675502,398.294 272.177502,398.036 C274.757502,397.769 277.651502,398.173 277.651502,395.046 C277.651502,391.527 277.025502,388.464 276.321502,385.018 C274.288502,374.985 274.054502,354.991 266.625502,347.471 C265.140502,345.982 263.419502,345.378 261.152502,345.613 C257.633502,345.976 253.958502,347.138 250.204502,347.526 C246.451502,347.915 243.323502,365.832 242.698502,368.555 C242.698502,369.18 241.525502,374.463 241.447502,375.096 C241.447502,375.409 240.587502,379.017 240.352502,380.214 C239.179502,385.574 237.615502,390.897 236.599502,396.163 C236.364502,397.36 235.895502,399.363 235.895502,400.692 Z M253.645502,370.316 C253.645502,369.769 253.723502,368.04 253.723502,367.884 C253.723502,367.728 254.036502,365.819 254.114502,365.263 C254.192502,365.021 254.349502,364.457 254.583502,364.276 C254.974502,364.236 256.851502,363.807 257.242502,363.767 C257.242502,363.767 257.633502,363.727 257.711502,363.718 C258.102502,363.678 259.431502,363.541 259.431502,363.775 L259.666502,364.689 L259.666502,371.492 L253.958502,372.082 L253.723502,371.794 C253.723502,371.716 253.645502,370.629 253.645502,370.316 Z" id="Fill-12" fill="#FFFFFF"></path>
                <path d="M281.013502,395.949 C281.482502,397.934 283.984502,397.675 285.626502,397.505 L286.643502,397.4 C288.676502,397.19 293.680502,396.751 293.680502,394.17 C293.680502,389.009 294.462502,383.924 294.619502,378.825 L294.697502,378.817 C295.401502,378.744 296.808502,381.336 297.199502,381.764 C297.277502,381.991 298.372502,383.363 298.607502,383.496 C298.607502,383.73 299.154502,384.456 299.232502,384.604 C299.467502,385.049 300.405502,387.063 300.640502,387.43 C300.718502,387.734 301.656502,390.061 301.734502,390.288 C302.282502,391.561 303.220502,394.67 304.940502,394.883 L307.599502,394.608 C307.677502,394.6 308.772502,394.174 308.928502,394.158 C313.307502,393.47 317.999502,394.158 317.999502,388.606 C317.999502,383.602 311.274502,377.807 308.694502,373.929 C308.381502,373.414 307.521502,372.8 307.521502,372.174 C307.521502,372.018 311.352502,368.728 312.369502,367.059 C315.106502,362.632 317.217502,358.661 317.217502,353.5 L317.217502,350.919 C316.982502,349.067 315.106502,346.993 314.245502,345.909 C312.760502,343.952 309.710502,343.563 307.443502,343.25 C307.364502,343.258 307.208502,343.196 307.130502,343.205 C306.817502,343.159 306.035502,343.083 305.879502,343.099 C305.644502,343.045 303.611502,343.334 303.376502,343.358 C299.076502,343.49 295.322502,343.643 290.709502,344.12 C289.301502,344.266 285.235502,344.765 284.923502,344.797 L282.811502,345.25 C282.420502,345.368 281.951502,346.355 281.951502,346.746 C281.482502,359.54 280.778502,372.437 280.778502,385.261 L280.778502,386.746 C280.778502,388.076 281.013502,394.542 281.013502,395.949 Z M298.137502,353.752 C301.109502,353.445 302.516502,353.925 302.516502,357.053 C302.516502,361.588 300.405502,362.354 295.948502,362.814 C295.948502,362.58 296.026502,361.555 296.026502,361.399 C296.026502,359.444 296.261502,354.963 296.261502,354.885 L297.199502,353.849 C297.199502,353.849 297.903502,353.776 298.137502,353.752 Z" id="Fill-13" fill="#FFFFFF"></path>
            </g>
        </g>
    </g>
</svg>