<?xml version="1.0" encoding="UTF-8"?>
<svg width="727px" height="680px" viewBox="0 0 727 680" version="1.1" xmlns="http://www.w3.org/2000/svg" xmlns:xlink="http://www.w3.org/1999/xlink">
    <!-- Generator: Sketch 62 (91390) - https://sketch.com -->
    <title>20JaarQ-BigBlack</title>
    <desc>Created with Sketch.</desc>
    <g id="20-Jaar-Q42-Logo" stroke="none" stroke-width="1" fill="none" fill-rule="evenodd">
        <g id="Logo-Big" transform="translate(-3397.000000, -116.000000)" fill="#000000">
            <g id="20JaarQ-BigBlack" transform="translate(3397.000000, 116.000000)">
                <path d="M381.076616,580.904463 C383.283616,580.973463 385.487616,580.975163 387.689616,580.920263 C379.153616,600.504463 370.783616,622.794663 362.692616,648.672363 C354.914616,623.796063 346.878616,602.234963 338.685616,583.206363 C352.855616,581.586163 367.002616,580.527363 381.076616,580.904463 Z M362.120344,148.673192 L361.57638,149.228146 C360.929714,180.278914 443.791832,207.605829 464.074837,184.50388 C521.427888,229.698399 549.382937,310.159223 512.944616,381.619163 C495.630616,415.574163 476.088616,440.298163 455.809616,467.276163 C425.320616,471.313163 394.620616,477.829163 363.731616,480.431163 C336.706616,482.677163 310.406616,484.799163 284.228616,487.171163 C258.768616,451.593163 233.893616,423.692163 212.440616,381.619163 C158.234039,275.313533 246.531903,149.088677 362.120344,148.673192 Z M346.232616,364.637163 L327.437616,364.637163 L286.076616,422.517163 L286.076616,437.951163 L327.543616,437.951163 L327.543616,454.517163 L346.232616,454.517163 L346.232616,437.951163 L357.574616,437.951163 L357.574616,421.556163 L346.232616,421.556163 L346.232616,364.637163 Z M403.921616,362.051163 C382.899616,362.051163 371.108616,376.067163 370.915616,392.268163 C370.88958,394.422378 371.019759,396.313445 371.02909,396.445774 L371.029616,396.453163 L389.228616,396.453163 C389.228616,396.453163 389.158616,395.749163 389.158616,394.082163 C389.158616,385.590163 393.898616,379.047163 403.502616,379.047163 C412.550616,379.047163 417.155616,384.887163 417.155616,391.441163 C417.155616,397.588396 414.201997,402.269429 406.833899,406.784068 L406.427616,407.030163 L391.528616,415.943163 C375.538183,425.593638 370.464141,438.376514 370.229384,454.027148 L370.223616,454.517163 L437.064616,454.517163 L437.064616,437.951163 L393.762616,437.951163 C395.097187,434.594485 397.863723,432.134179 401.181724,429.970394 L401.552616,429.731163 L418.956616,419.151163 C430.102616,412.327163 436.508616,402.858163 436.508616,391.157163 C436.508616,375.420163 424.115616,362.051163 403.921616,362.051163 Z M327.543616,387.636163 L327.543616,421.556163 L304.843616,421.556163 L327.543616,387.636163 Z M362.657616,183.516163 C317.750616,183.516163 281.345616,219.920163 281.345616,264.828163 C281.345616,309.735163 317.750616,346.140163 362.657616,346.140163 C383.212616,346.140163 401.971616,338.497163 416.289616,325.918163 L436.087616,341.101163 L452.484616,320.394163 L433.057616,305.495163 C439.984616,293.530163 443.969616,279.648163 443.969616,264.828163 C443.969616,219.920163 407.564616,183.516163 362.657616,183.516163 Z M362.657616,214.733163 C390.324616,214.733163 412.752616,237.162163 412.752616,264.828163 C412.752616,272.490163 411.026616,279.747163 407.950616,286.241163 L386.834616,270.046163 L370.436616,290.752163 L390.734616,306.319163 C382.725616,311.749163 373.062616,314.923163 362.657616,314.923163 C334.990616,314.923163 312.562616,292.495163 312.562616,264.828163 C312.562616,237.162163 334.990616,214.733163 362.657616,214.733163 Z" id="Combined-Shape"></path>
                <path d="M208.387616,556.293163 C206.997616,556.172163 205.606616,556.063163 204.213616,555.967163 C197.602616,555.515163 181.450616,557.851163 175.974616,555.705163 C175.197616,555.401163 176.017616,545.814163 175.955616,544.233163 C175.444616,531.096163 192.584616,527.067163 192.074616,513.955163 C191.624616,502.383163 172.663616,481.856163 172.215616,470.334163 C172.205616,470.067163 171.941616,469.721163 172.184616,469.534163 C173.014616,468.894163 192.991616,473.462163 195.975616,473.745163 C213.700616,475.425163 232.933616,473.312163 250.812616,472.616163 L261.346616,486.028163 C250.895616,487.035163 240.439616,488.097163 229.939616,489.238163 C223.201616,490.032163 217.371616,492.012163 210.643616,494.246163 C206.614616,495.585163 205.126616,499.924163 204.900616,503.724163 C204.199616,515.537163 206.830616,527.275163 207.670616,538.885163 C208.070616,544.681163 208.281616,550.486163 208.387616,556.293163 Z M211.426616,494.017163 L211.207616,494.085163 C211.207616,494.085163 212.142616,493.917163 211.426616,494.017163 Z" id="Fill-2"></path>
                <path d="M521.388616,511.997163 C525.490616,512.384163 529.564616,512.625163 533.580616,512.647163 C536.445616,512.663163 555.906616,510.109163 556.625616,510.828163 C556.836616,511.038163 556.548616,511.356163 556.509616,511.620163 C554.842616,523.030163 543.985616,542.698163 542.310616,554.157163 C540.412616,567.141163 546.894616,571.703163 544.992616,584.711463 C544.763616,586.277663 544.509616,595.889463 543.738616,596.114863 C538.307616,597.702663 523.222616,593.773263 516.895616,593.565263 C491.551616,592.732163 466.327616,596.971363 440.962616,593.263963 C435.684616,592.492663 428.330616,591.876563 423.116616,592.783463 C422.437616,592.901563 414.846616,594.376663 414.455616,593.961263 C413.534616,592.982563 417.328616,587.084963 422.263616,580.429163 C434.570616,578.475163 446.864616,576.374163 459.212616,576.044163 C475.803616,575.635163 492.407616,575.849163 508.884616,574.801163 C510.048616,574.723163 511.154616,574.946163 512.243616,574.785163 C514.972616,574.382163 515.345616,573.922163 517.489616,571.293163 L518.749616,568.677163 C519.694616,565.915163 520.031616,562.979163 520.346616,560.058163 C521.941616,545.229163 522.635616,529.582163 521.593616,514.638163 C521.524616,513.760163 521.455616,512.879163 521.388616,511.997163 Z" id="Fill-3"></path>
                <path d="M510.538616,466.962163 C511.471616,466.854163 510.538616,473.729163 510.538616,474.691163 C510.538616,487.239163 510.568616,499.665163 511.601616,512.015163 C512.071866,517.633413 511.761956,559.835856 508.711883,564.287885 L508.68414,564.322905 L508.668721,564.342598 L508.59814,564.425905 L508.579981,564.440558 C506.843854,565.40544 459.745386,565.863473 454.574616,566.092163 C415.972616,567.803163 411.423616,574.920163 381.915616,573.927163 C354.851616,573.016163 317.087616,579.889663 289.353616,582.757263 C274.134616,584.330763 266.768616,585.745963 248.105616,587.735863 C243.771616,588.198063 223.155616,593.056463 218.767616,591.333963 C218.057616,591.055163 218.446616,588.663263 218.446616,587.963163 C218.446616,573.846163 218.762616,557.952163 217.668616,541.607163 C217.061616,532.540163 212.875616,504.190163 215.958616,503.871163 C215.958616,503.871163 229.492616,499.631163 233.831616,499.182163 L259.169616,496.562163 C281.408616,494.263163 305.615616,492.553163 327.908616,490.444163 C359.832616,487.424163 368.531616,487.734163 394.482616,483.923163 C414.505616,480.982163 450.633616,474.642163 469.019616,472.741163 C481.026616,471.500163 493.704616,468.921163 510.538616,466.962163 Z M235.794616,531.980163 C235.794616,534.091163 235.559616,535.679163 237.357616,536.666163 C240.094616,538.182163 242.362616,538.651163 245.724616,538.304163 L247.757616,538.093163 C249.477616,537.524163 250.259616,536.193163 251.276616,534.836163 L251.276616,527.799163 C251.276616,527.330163 252.683616,527.106163 252.996616,527.074163 C255.811616,526.783163 257.688616,528.543163 257.688616,531.358163 C257.688616,537.770163 248.774616,541.898163 244.786616,545.673163 C243.222616,547.085163 241.736616,548.959163 240.329616,550.747163 C240.172616,550.919163 240.016616,551.170163 239.860616,551.343163 C238.296616,553.303163 237.670616,556.417163 237.436616,558.631163 C237.436616,559.256163 237.357616,562.080163 237.357616,562.705163 C237.357616,564.113163 237.279616,567.014163 237.592616,568.624163 C237.905616,568.904163 238.296616,569.176163 238.765616,569.128163 C239.078616,569.095163 239.234616,569.079163 239.625616,568.804163 L268.400616,565.829163 L269.182616,565.123163 L269.182616,555.114163 C269.495616,554.065163 269.495616,553.596163 269.495616,552.579163 C269.495616,551.485163 269.417616,551.884163 268.400616,551.207163 C268.088616,551.239163 266.680616,551.306163 266.289616,551.347163 C264.569616,551.525163 265.429616,551.279163 263.787616,551.606163 C263.474616,551.716163 260.581616,552.172163 260.190616,552.212163 C260.034616,552.306163 258.157616,552.657163 257.922616,552.681163 L257.688616,552.705163 C258.470616,552.234163 261.598616,549.643163 262.223616,549.030163 C262.536616,548.764163 265.742616,545.304163 266.837616,544.096163 C270.668616,539.556163 271.372616,533.071163 271.372616,527.754163 C271.372616,527.129163 271.294616,524.478163 271.294616,523.931163 C270.433616,518.859163 265.429616,515.467163 260.894616,514.059163 C240.485616,513.041163 235.794616,525.490163 235.794616,531.980163 Z M278.175616,521.343163 C275.360616,527.889163 274.500616,533.843163 274.500616,540.724163 L274.500616,544.321163 C275.203616,548.861163 275.907616,552.855163 277.627616,556.899163 C278.018616,557.641163 278.409616,559.242163 279.035616,559.960163 C279.739616,560.903163 280.833616,561.338163 281.693616,561.952163 C284.743616,563.827163 287.793616,564.919163 291.702616,564.514163 C295.847616,564.086163 299.287616,562.010163 302.571616,559.325163 C306.403616,556.113163 307.107616,552.835163 307.967616,548.445163 L308.201616,547.482163 C309.140616,543.241163 309.531616,538.900163 309.531616,534.834163 C309.531616,532.097163 308.905616,520.355163 307.967616,518.497163 C301.711616,506.632163 284.196616,507.349163 278.175616,521.343163 Z M354.649616,503.443163 L351.990616,503.718163 C350.113616,503.912163 348.784616,504.675163 348.471616,506.662163 L348.471616,509.321163 C348.471616,517.375163 349.331616,526.340163 349.331616,534.472163 L349.331616,537.834163 C349.331616,538.460163 349.253616,540.736163 348.158616,540.849163 C348.080616,540.857163 348.002616,540.865163 348.002616,540.865163 C347.924616,540.795163 347.298616,540.234163 347.142616,540.016163 C346.829616,539.501163 345.422616,536.831163 345.187616,536.308163 C344.796616,535.645163 343.936616,534.639163 342.998616,534.736163 C340.730616,534.970163 333.771616,543.822163 333.771616,545.386163 C333.771616,550.469163 342.685616,554.082163 346.673616,555.077163 C348.080616,555.401163 349.722616,555.231163 351.052616,555.094163 C359.888616,554.180163 360.826616,545.247163 361.608616,538.285163 C361.608616,538.051163 361.686616,537.730163 361.686616,537.495163 C361.999616,533.788163 362.312616,530.080163 362.312616,526.405163 C362.312616,520.228163 362.155616,512.910163 361.608616,506.868163 C361.217616,502.842163 357.933616,503.104163 354.649616,503.443163 Z M390.169616,498.728163 C386.874616,498.959163 381.933616,500.254163 379.893616,501.235163 C376.718616,502.762163 372.868616,518.389163 372.194616,521.104163 C372.174616,521.734163 370.905616,527.003163 370.811616,527.638163 C370.801616,527.952163 369.879616,531.549163 369.620616,532.745163 C368.349616,538.093163 366.714616,543.388163 365.592616,548.647163 C365.333616,549.842163 364.829616,551.840163 364.785616,553.177163 C364.754616,554.121163 365.241616,554.872163 366.193616,554.805163 C366.266616,554.800163 366.413616,554.790163 366.413616,554.790163 C367.730616,554.697163 373.959616,554.102163 375.277616,554.010163 C380.637616,553.162163 379.505616,547.590163 379.940616,543.243163 C379.948616,543.007163 380.146616,541.423163 380.230616,541.103163 C380.332616,540.233163 381.916616,537.994163 381.916616,537.994163 C383.977616,537.535163 385.194616,536.752163 387.317616,536.602163 C387.464616,536.592163 387.830616,536.566163 387.976616,536.556163 C389.303616,538.425163 387.843616,553.943163 392.221616,554.106163 C394.629616,554.172163 396.313616,554.054163 398.656616,553.889163 C401.072616,553.720163 403.824616,552.238163 403.927616,549.091163 C404.043616,545.551163 403.561616,542.446163 403.018616,538.952163 C401.453616,528.780163 401.895616,508.656163 395.214616,500.806163 C393.877616,499.252163 392.292616,498.578163 390.169616,498.728163 Z M433.234616,494.285163 C429.715616,494.648163 426.040616,495.810163 422.286616,496.198163 C418.533616,496.587163 415.405616,514.504163 414.780616,517.227163 C414.780616,517.852163 413.607616,523.135163 413.529616,523.768163 C413.529616,524.081163 412.669616,527.689163 412.434616,528.886163 C411.261616,534.246163 409.697616,539.569163 408.681616,544.835163 C408.446616,546.032163 407.977616,548.035163 407.977616,549.364163 C407.977616,550.303163 408.524616,551.028163 409.541616,550.923163 C409.619616,550.915163 409.775616,550.899163 409.775616,550.899163 C411.183616,550.753163 417.829616,549.910163 419.237616,549.764163 C424.945616,548.705163 423.538616,543.220163 423.850616,538.887163 C423.850616,538.653163 424.007616,537.073163 424.085616,536.752163 C424.163616,535.883163 424.476616,533.818163 424.476616,533.818163 L424.710616,533.637163 C426.900616,533.098163 429.246616,532.230163 431.513616,531.996163 C431.670616,531.980163 432.061616,531.939163 432.217616,531.923163 C433.703616,533.724163 432.686616,547.200163 437.378616,547.185163 C439.958616,547.152163 441.757616,546.966163 444.259616,546.708163 C446.839616,546.441163 449.733616,546.845163 449.733616,543.718163 C449.733616,540.199163 449.107616,537.136163 448.403616,533.690163 C446.370616,523.657163 446.136616,503.663163 438.707616,496.143163 C437.222616,494.654163 435.501616,494.050163 433.234616,494.285163 Z M296.238616,533.941163 L296.238616,534.410163 C296.159616,538.641163 297.019616,544.651163 293.266616,548.245163 C293.110616,548.417163 292.641616,548.779163 292.641616,548.779163 L289.435616,549.110163 C288.418616,549.215163 287.793616,543.181163 287.793616,542.712163 C287.793616,539.193163 288.105616,530.637163 292.171616,528.418163 C292.250616,528.410163 293.032616,527.939163 293.032616,527.939163 L293.266616,527.914163 C295.221616,527.712163 296.238616,533.159163 296.238616,533.941163 Z M475.458616,492.030163 C471.158616,492.162163 467.404616,492.315163 462.791616,492.792163 C461.383616,492.938163 457.317616,493.437163 457.005616,493.469163 L454.893616,493.922163 C454.502616,494.040163 454.033616,495.027163 454.033616,495.418163 C453.564616,508.212163 452.860616,521.109163 452.860616,533.933163 L452.860616,535.418163 C452.860616,536.748163 453.095616,543.214163 453.095616,544.621163 C453.564616,546.606163 456.066616,546.347163 457.708616,546.177163 L458.725616,546.072163 C460.758616,545.862163 465.762616,545.423163 465.762616,542.842163 C465.762616,537.681163 466.544616,532.596163 466.701616,527.497163 L466.779616,527.489163 C467.483616,527.416163 468.890616,530.008163 469.281616,530.436163 C469.359616,530.663163 470.454616,532.035163 470.689616,532.168163 C470.689616,532.402163 471.236616,533.128163 471.314616,533.276163 C471.549616,533.721163 472.487616,535.735163 472.722616,536.102163 C472.800616,536.406163 473.738616,538.733163 473.816616,538.960163 C474.364616,540.233163 475.302616,543.342163 477.022616,543.555163 L479.681616,543.280163 C479.759616,543.272163 480.854616,542.846163 481.010616,542.830163 C485.389616,542.142163 490.081616,542.830163 490.081616,537.278163 C490.081616,532.274163 483.356616,526.479163 480.776616,522.601163 C480.463616,522.086163 479.603616,521.472163 479.603616,520.846163 C479.603616,520.690163 483.434616,517.400163 484.451616,515.731163 C487.188616,511.304163 489.299616,507.333163 489.299616,502.172163 L489.299616,499.591163 C489.064616,497.739163 487.188616,495.665163 486.327616,494.581163 C484.842616,492.624163 481.792616,492.235163 479.525616,491.922163 C479.446616,491.930163 479.290616,491.868163 479.212616,491.877163 C478.899616,491.831163 478.117616,491.755163 477.961616,491.771163 C477.726616,491.717163 475.693616,492.006163 475.458616,492.030163 Z M388.964616,515.935163 L389.152616,516.863163 L388.927616,523.708163 L383.582616,524.083163 L383.373616,523.784163 C383.376616,523.706163 383.339616,522.609163 383.349616,522.295163 C383.367616,521.744163 383.497616,520.008163 383.502616,519.851163 C383.508616,519.693163 383.862616,517.785163 383.954616,517.229163 C384.035616,516.988163 384.199616,516.427163 384.424616,516.254163 C384.790616,516.228163 386.555616,515.869163 386.921616,515.843163 C386.921616,515.843163 387.287616,515.817163 387.361616,515.812163 C387.727616,515.786163 388.971616,515.699163 388.964616,515.935163 Z M431.513616,512.447163 L431.748616,513.361163 L431.748616,520.164163 L426.040616,520.754163 L425.805616,520.466163 C425.805616,520.388163 425.727616,519.301163 425.727616,518.988163 C425.727616,518.441163 425.805616,516.712163 425.805616,516.556163 C425.805616,516.400163 426.118616,514.491163 426.196616,513.935163 C426.274616,513.693163 426.431616,513.129163 426.665616,512.948163 C427.056616,512.908163 428.933616,512.479163 429.324616,512.439163 C429.324616,512.439163 429.715616,512.399163 429.793616,512.390163 C430.184616,512.350163 431.513616,512.213163 431.513616,512.447163 Z M474.598616,505.725163 C474.598616,510.260163 472.487616,511.026163 468.030616,511.486163 C468.030616,511.252163 468.108616,510.227163 468.108616,510.071163 C468.108616,508.116163 468.343616,503.635163 468.343616,503.557163 L469.281616,502.521163 C469.281616,502.521163 469.985616,502.448163 470.219616,502.424163 C473.191616,502.117163 474.598616,502.597163 474.598616,505.725163 Z" id="Combined-Shape"></path>
                <path d="M162.885616,410.647163 C149.085616,411.509163 135.047616,416.818163 122.455616,422.272163 C109.654616,427.816163 96.9056158,434.436163 85.5473158,442.564163 C79.5890158,446.828163 73.8177158,451.355163 68.2379158,456.105163 C62.3553158,461.112163 54.9471158,465.895163 53.3858158,473.854163 C52.1724158,480.048163 57.6141158,486.961163 64.2594158,485.999163 C71.7997158,484.909163 75.8388158,479.664163 81.3366158,474.920163 C86.3307158,470.610163 91.4804158,466.478163 96.7846158,462.559163 C107.359616,454.746163 118.088616,447.164163 129.652616,440.869163 C140.739616,434.834163 152.495616,431.028163 164.143616,426.357163 C176.489616,421.405163 189.521616,421.505163 201.992616,417.493163 C204.381616,416.724163 204.767616,412.787163 202.279616,411.843163 C195.721616,409.360163 190.241616,408.803163 183.178616,409.114163 C176.401616,409.412163 169.655616,410.224163 162.885616,410.647163" id="Fill-14"></path>
                <path d="M25.2778158,503.613163 C25.2358158,504.560163 25.3547158,505.506163 25.5920158,506.419163 C25.6464158,508.224163 26.2062158,509.989163 27.2426158,511.480163 C29.4928158,514.718163 33.5806158,516.253163 37.3530158,514.917163 C44.3091158,512.453163 46.5891158,502.288163 40.7495158,497.452163 C34.9995158,492.691163 25.6241158,495.757163 25.2778158,503.613163" id="Fill-15"></path>
                <path d="M157.002616,194.812163 C155.266616,198.896163 151.297616,202.536163 146.585616,201.709163 C142.743616,201.033163 140.701616,198.260163 141.017616,194.440163 C141.627616,187.036163 149.708616,181.283163 156.373616,180.103163 C156.702616,180.044163 157.028616,180.005163 157.355616,179.959163 C158.838616,184.961163 159.003616,190.108163 157.002616,194.812163 M96.7086158,161.279163 C103.041616,170.300163 103.731616,184.843163 94.7246158,192.467163 C89.8008158,196.634163 83.6133158,196.360163 79.5745158,191.197163 C75.6549158,186.188163 76.1370158,179.569163 78.4115158,173.972163 C81.2419158,167.012163 86.4628158,161.218163 92.7586158,157.038163 C94.2236158,158.257163 95.5646158,159.648163 96.7086158,161.279163 M164.063616,170.590163 C158.904616,159.537163 149.324616,150.208163 138.800616,145.031163 C124.785616,138.134163 108.659616,137.958163 94.5976158,144.012163 C78.7608158,134.741163 56.8344158,137.039163 40.6293158,143.710163 C22.0721158,151.349163 6.89461579,166.582163 0.344715795,185.652163 C-1.93098421,192.282163 7.70211579,195.041163 10.4738158,188.948163 C19.9795158,168.054163 40.6645158,153.030163 63.5118158,150.594163 C69.3808158,149.968163 75.9531158,150.082163 81.9531158,151.670163 C69.5655158,161.871163 60.0210158,179.250163 68.2675158,194.665163 C77.8177158,212.516163 100.352616,208.961163 109.075616,192.416163 C115.923616,179.429163 113.227616,162.731163 103.844616,151.714163 C104.781616,151.417163 105.720616,151.140163 106.665616,150.908163 C119.292616,147.824163 132.252616,150.638163 142.476616,158.675163 C146.335616,161.708163 150.301616,166.085163 153.321616,171.057163 C146.602616,172.414163 140.240616,175.775163 135.766616,180.969163 C130.130616,187.512163 127.191616,197.939163 132.617616,205.513163 C137.272616,212.013163 146.438616,214.113163 153.701616,211.229163 C162.306616,207.812163 167.451616,198.777163 167.992616,189.812163 C168.184616,186.638163 167.914616,183.497163 167.308616,180.422163 C179.714616,183.338163 189.924616,194.477163 196.047616,205.158163 C197.008616,206.835163 199.398616,205.975163 199.182616,204.089163 C197.162616,186.422163 181.515616,172.450163 164.063616,170.590163" id="Fill-16"></path>
                <path d="M256.227616,101.297163 C248.813616,84.9571634 233.544616,66.5331634 216.786616,58.0001634 C207.380616,53.2101634 198.906616,62.9921634 205.948616,71.0701634 C216.719616,83.4311634 230.201616,92.5821634 239.383616,106.509163 C243.341616,112.515163 246.543616,118.700163 248.356616,125.488163 C249.996616,131.636163 250.134616,137.940163 252.784616,143.861163 C253.687616,145.882163 257.260616,146.574163 258.625616,144.981163 C268.031616,134.012163 261.929616,113.864163 256.227616,101.297163" id="Fill-17"></path>
                <path d="M199.016616,26.0081634 C194.769616,23.4231634 190.507616,20.8771634 186.238616,18.3421634 C187.454616,14.3571634 188.569616,10.3311634 189.555616,6.24516345 C190.394616,2.76616345 185.858616,-1.64183655 182.370616,0.618163447 C178.200616,3.32116345 174.042616,6.03616345 169.880616,8.74716345 C166.413616,6.73916345 162.938616,4.73616345 159.457616,2.74116345 C156.377616,0.974163447 153.018616,3.39016345 153.801616,6.60816345 C154.686616,10.2411634 155.549616,13.8781634 156.419616,17.5161634 C152.012616,20.3931634 147.606616,23.2701634 143.194616,26.1371634 C139.548616,28.5091634 140.405616,35.0051634 145.842616,35.1731634 C150.866616,35.3291634 155.879616,35.3861634 160.884616,35.3871634 C161.184616,36.5181634 161.459616,37.6541634 161.768616,38.7821634 C161.288616,44.5851634 162.452616,49.9051634 166.865616,52.9521634 C170.525616,55.4811634 173.839616,51.6751634 172.705616,48.4301634 C173.805616,48.2181634 174.780616,47.5901634 175.352616,46.3961634 C177.150616,42.6321634 178.809616,38.8221634 180.361616,34.9731634 C186.271616,34.7301634 192.174616,34.4141634 198.061616,33.9381634 C202.123616,33.6091634 202.198616,27.9451634 199.016616,26.0081634" id="Fill-18"></path>
                <path d="M564.819616,124.506163 C564.209616,130.459163 557.056616,129.818163 553.795616,126.710163 C550.022616,123.116163 549.423616,118.097163 550.286616,113.309163 C551.726616,113.504163 553.152616,113.805163 554.543616,114.252163 C558.579616,115.548163 565.340616,119.433163 564.819616,124.506163 M512.988616,155.270163 C515.629616,154.337163 518.705616,154.159163 521.252616,155.469163 C522.860616,156.297163 525.856616,158.748163 525.191616,160.946163 C524.638616,162.775163 521.317616,162.771163 519.616616,162.759163 C517.430616,162.744163 514.445616,162.023163 512.851616,160.248163 C512.800616,158.704163 512.597616,157.109163 512.367616,155.517163 C512.572616,155.430163 512.777616,155.345163 512.988616,155.270163 M651.242616,62.6521634 C648.298616,57.0401634 640.946616,54.4211634 635.280616,52.4221634 C629.443616,50.3631634 623.195616,49.2991634 617.021616,48.9811634 C604.942616,48.3581634 592.577616,51.0991634 581.804616,56.5521634 C565.442616,64.8361634 549.752616,81.6591634 544.916616,100.309163 C542.896616,100.347163 540.897616,100.502163 538.965616,100.798163 C525.455616,102.862163 512.653616,111.472163 506.177616,123.593163 C502.476616,130.520163 500.549616,138.392163 500.673616,146.249163 C500.711616,148.685163 500.945616,151.769163 501.579616,154.820163 C500.865616,155.672163 500.213616,156.552163 499.640616,157.452163 C494.575616,165.423163 493.819616,180.843163 503.087616,186.317163 C504.323616,187.048163 505.501616,185.847163 505.307616,184.610163 C504.471616,179.278163 502.014616,174.642163 502.642616,169.028163 C502.823616,167.414163 503.245616,165.822163 503.868616,164.314163 C505.502616,167.218163 508.167616,169.497163 511.425616,171.160163 C517.353616,174.184163 523.010616,177.301163 529.695616,174.818163 C535.776616,172.557163 539.300616,166.474163 538.348616,160.071163 C537.467616,154.151163 532.775616,149.231163 527.486616,146.721163 C522.428616,144.321163 516.756616,144.902163 511.675616,147.173163 C511.868616,142.410163 512.971616,137.610163 515.052616,133.326163 C519.798616,123.558163 528.957616,116.457163 539.460616,113.924163 C540.247616,113.734163 541.044616,113.585163 541.844616,113.455163 C540.238616,124.189163 544.191616,135.894163 556.120616,138.626163 C570.469616,141.913163 581.311616,127.657163 574.306616,114.728163 C570.468616,107.645163 563.671616,103.470163 556.139616,101.556163 C558.594616,96.8911634 561.183616,92.3041634 564.330616,87.9931634 C570.122616,80.0591634 577.694616,73.4251634 586.419616,68.9021634 C595.143616,64.3781634 604.963616,62.5271634 614.738616,63.1361634 C619.649616,63.4431634 624.510616,64.5201634 629.131616,66.2101634 C633.934616,67.9671634 638.369616,72.1351634 643.421616,72.8261634 C649.299616,73.6301634 654.274616,68.4341634 651.242616,62.6521634" id="Fill-19"></path>
                <path d="M651.953616,192.590163 C631.597616,189.000163 607.835616,196.122163 589.622616,206.200163 C571.453616,216.256163 554.019616,232.011163 545.025616,252.011163 C543.198616,256.072163 547.936616,261.296163 551.561616,257.982163 C565.724616,245.041163 579.859616,233.310163 597.161616,225.539163 C605.366616,221.852163 613.906616,218.741163 622.643616,217.067163 C632.074616,215.258163 641.238616,215.432163 650.687616,214.676163 C662.484616,213.734163 663.550616,194.636163 651.953616,192.590163" id="Fill-20"></path>
                <path d="M724.230616,203.809163 C722.825616,199.730163 721.466616,195.635163 720.130616,191.534163 C723.242616,189.006163 726.830616,186.157163 726.782616,182.064163 C726.771616,181.043163 726.061616,179.985163 725.200616,179.587163 C722.340616,178.267163 718.998616,177.697163 715.642616,177.295163 C714.626616,173.936163 713.627616,170.571163 712.661616,167.191163 C711.783616,164.112163 707.274616,163.871163 706.028616,166.899163 C704.841616,169.782163 703.673616,172.666163 702.529616,175.554163 C698.774616,174.980163 695.018616,174.449163 691.240616,174.047163 C690.669616,173.719163 690.099616,173.392163 689.528616,173.064163 C685.472616,170.736163 681.433616,177.280163 684.973616,180.360163 C688.965616,183.835163 692.988616,187.269163 697.019616,190.693163 C695.147616,196.452163 693.535616,202.303163 692.395616,208.331163 C691.859616,211.163163 695.158616,213.789163 697.460616,211.799163 C701.493616,208.315163 705.468616,204.759163 709.422616,201.176163 C712.283616,203.588163 715.143616,205.998163 717.996616,208.416163 C720.909616,210.882163 725.600616,207.790163 724.230616,203.809163" id="Fill-21"></path>
                <path d="M595.799616,340.815163 C594.969616,343.419163 592.881616,345.070163 590.268616,343.985163 C584.558616,341.617163 584.975616,334.235163 589.570616,331.346163 C590.378616,330.838163 591.003616,330.202163 591.491616,329.503163 C592.270616,330.273163 592.985616,331.102163 593.609616,331.996163 C595.337616,334.472163 596.769616,337.772163 595.799616,340.815163 M646.919616,364.754163 C641.188616,367.741163 635.347616,361.227163 636.391616,355.644163 C637.537616,349.525163 644.141616,345.886163 649.738616,344.903163 C650.203616,344.822163 650.671616,344.756163 651.140616,344.703163 C651.709616,346.086163 652.161616,347.530163 652.461616,349.040163 C653.479616,354.166163 652.077616,362.066163 646.919616,364.754163 M555.667616,330.732163 C555.305616,332.616163 557.693616,333.122163 558.885616,332.307163 C564.796616,328.254163 569.090616,323.618163 576.879616,323.555163 C577.318616,323.551163 577.759616,323.566163 578.199616,323.593163 C571.340616,330.351163 573.064616,343.860163 580.281616,350.649163 C589.646616,359.458163 604.671616,354.828163 606.028616,341.519163 C606.646616,335.465163 604.340616,329.770163 600.490616,325.227163 C607.657616,323.442163 614.915616,322.569163 622.645616,324.195163 C628.948616,325.520163 635.726616,328.321163 641.268616,332.497163 C632.986616,336.382163 626.720616,344.314163 626.134616,353.633163 C625.619616,361.834163 630.249616,370.827163 637.865616,374.277163 C646.449616,378.166163 655.748616,373.867163 661.129616,366.765163 C665.899616,360.469163 667.028616,353.517163 665.786616,346.735163 C667.204616,347.249163 668.584616,347.830163 669.909616,348.472163 C683.578616,355.090163 691.332616,367.699163 693.431616,382.403163 C694.633616,390.822163 706.468616,389.162163 707.561616,381.539163 C710.576616,360.489163 693.430616,341.797163 675.390616,333.862163 C669.925616,331.458163 663.795616,329.854163 657.667616,329.558163 C652.967616,323.455163 646.899616,318.342163 640.897616,315.182163 C626.367616,307.532163 600.621616,304.214163 587.423616,316.382163 C586.449616,316.059163 585.466616,315.790163 584.479616,315.587163 C573.894616,313.418163 557.960616,318.753163 555.667616,330.732163" id="Fill-22"></path>
                <path d="M290.207616,606.927363 C289.432616,605.089263 286.773616,604.566463 285.169616,605.467163 C272.737616,612.446763 262.506616,622.980363 249.940616,629.981763 C243.508616,633.565363 236.754616,636.118463 229.703616,638.191763 C220.925616,640.771363 210.346616,641.698963 203.427616,648.017863 C197.586616,653.352063 199.627616,665.030863 207.905616,666.785063 C218.033616,668.931063 229.381616,664.246163 239.087616,661.122663 C248.414616,658.119863 257.324616,654.170463 265.457616,648.671763 C276.843616,640.972963 296.830616,622.635963 290.207616,606.927363" id="Fill-23"></path>
                <path d="M178.607616,651.825063 C176.675616,652.862563 174.759616,653.930163 172.841616,654.989963 C171.031616,653.211763 169.151616,651.507563 167.196616,649.880963 C164.447616,647.590763 160.249616,649.471263 160.957616,653.277163 C161.378616,655.536563 161.813616,657.791063 162.246616,660.044563 C160.665616,660.722963 159.053616,661.322863 157.388616,661.823063 C154.721616,662.622063 153.921616,667.224163 157.206616,667.834363 C159.423616,668.244063 161.690616,668.653463 163.963616,668.900063 C164.457616,671.407363 164.949616,673.917963 165.454616,676.425363 C166.200616,680.123863 171.379616,679.926763 172.512616,676.638963 C173.069616,675.019463 173.675616,673.399563 174.321616,671.788763 C175.795616,672.248963 177.279616,672.665163 178.779616,673.023563 C179.340616,673.457463 179.931616,673.840163 180.597616,674.080563 C181.434616,674.383063 182.343616,674.251863 183.126616,673.861063 C183.367616,673.896263 183.604616,673.946663 183.846616,673.977463 C185.345616,674.170363 185.883616,672.434263 185.244616,671.369763 C185.607616,670.218763 185.244616,668.968463 184.475616,668.029163 C184.383616,667.917063 184.292616,667.804663 184.200616,667.693963 C183.768616,667.166263 183.165616,666.878063 182.514616,666.777763 C181.749616,665.774863 180.983616,664.311163 180.467616,663.639563 C180.018616,663.053363 179.553616,662.480863 179.091616,661.906363 C180.230616,659.942463 181.459616,658.037063 182.815616,656.241063 C184.793616,653.619063 181.208616,650.429863 178.607616,651.825063" id="Fill-24"></path>
                <path d="M117.699616,328.577163 C115.974616,333.884163 109.533616,329.649163 107.297616,326.648163 C104.422616,322.787163 103.512616,317.824163 104.557616,313.283163 C106.843616,314.559163 109.039616,316.062163 111.088616,317.813163 C113.957616,320.265163 119.013616,324.543163 117.699616,328.577163 M53.1040158,355.525163 C55.5245158,348.888163 54.4270158,341.334163 56.5461158,334.453163 C58.7118158,327.422163 62.8070158,320.707163 68.7644158,315.782163 C76.2955158,309.557163 85.1424158,307.747163 93.6176158,309.294163 C91.2202158,317.537163 92.7276158,326.883163 98.8156158,334.160163 C104.090616,340.463163 114.101616,344.834163 122.282616,340.377163 C131.076616,335.583163 131.476616,324.817163 126.878616,317.369163 C123.372616,311.691163 118.296616,306.803163 112.353616,303.108163 C119.461616,299.441163 128.040616,302.625163 135.095616,305.438163 C142.550616,308.411163 149.742616,311.946163 153.360616,319.021163 C155.172616,322.562163 160.343616,321.690163 160.621616,317.716163 C161.960616,298.559163 132.297616,287.106163 115.070616,290.292163 C109.079616,291.401163 104.177616,294.092163 100.492616,297.726163 C91.1601158,294.888163 80.9735158,294.812163 71.7409158,298.601163 C60.6626158,303.145163 51.8063158,311.475163 47.0781158,321.765163 C42.7733158,331.135163 38.5152158,346.409163 43.4655158,356.047163 C45.6165158,360.230163 51.4585158,360.035163 53.1040158,355.525163" id="Fill-27"></path>
                <path d="M512.287616,650.120863 C497.894616,647.710863 483.688616,646.187163 470.285616,639.928463 C458.111616,634.244463 449.876616,626.128363 440.632616,616.738263 C438.558616,614.632263 434.965616,616.411363 435.547616,619.370563 C441.779616,651.057163 484.169616,664.015563 511.688616,665.606063 C521.917616,666.196663 521.829616,651.716563 512.287616,650.120863" id="Fill-28"></path>
                <path d="M549.823616,665.026763 C549.283616,662.095863 547.930616,659.164463 545.106616,657.830963 C541.794616,656.265363 538.153616,657.100763 535.943616,660.067563 C534.891616,661.479463 534.897616,663.501763 535.659616,665.114163 C535.694616,665.428063 535.739616,665.739063 535.806616,666.029263 C536.907616,670.833663 543.001616,673.008863 547.144616,670.778363 C549.241616,669.649763 550.248616,667.332763 549.823616,665.026763" id="Fill-29"></path>
                <path d="M446.120685,84.4522109 L460.572616,178.292768 C444.769848,200.690743 368.996614,176.471915 369.57592,148.875234 L436.977304,81.5054069 C441.101788,77.3690832 445.234171,78.6848695 446.120685,84.4522109 Z" id="Fill-30"></path>
                <path d="M663.046798,487.252525 C660.049798,481.591525 651.126798,481.277525 645.500798,479.766525 C639.886798,478.258525 634.305798,476.600525 628.869798,474.531525 C617.767798,470.307525 607.397798,464.204525 597.834798,457.198525 C588.284798,450.203525 579.662798,441.635525 572.036798,432.607525 C568.334798,428.224525 564.971798,423.657525 561.692798,418.952525 C558.317798,414.109525 555.879798,408.658525 551.126798,405.067525 C549.767798,404.040525 547.261798,405.075525 546.994798,406.748525 C545.973798,413.164525 548.888798,419.138525 551.403798,424.966525 C553.885798,430.714525 557.036798,436.286525 560.562798,441.461525 C568.079798,452.491525 577.265798,462.039525 587.779798,470.231525 C598.550798,478.620525 610.348798,485.259525 623.006798,490.356525 C628.849798,492.709525 634.848798,494.731525 641.018798,496.025525 C647.108798,497.302525 657.288798,500.201525 662.057798,494.921525 C664.021798,492.747525 664.418798,489.845525 663.046798,487.252525" id="Fill-25" transform="translate(605.321286, 451.317090) rotate(-10.000000) translate(-605.321286, -451.317090) "></path>
                <path d="M701.591221,479.022007 C701.929221,479.197007 702.266221,479.373007 702.603221,479.547007 C702.447221,479.775007 702.285221,479.998007 702.129221,480.225007 C701.951221,479.824007 701.769221,479.423007 701.591221,479.022007 M722.650221,484.316007 C720.070221,482.920007 717.483221,481.545007 714.897221,480.165007 C715.206221,477.341007 715.476221,474.512007 715.727221,471.682007 C715.884221,469.913007 713.938221,468.807007 712.419221,469.162007 C709.231221,469.907007 707.193221,472.428007 705.430221,475.137007 C702.796221,473.749007 700.164221,472.355007 697.525221,470.975007 C695.037221,469.675007 692.885221,472.223007 693.917221,474.583007 C695.474221,478.141007 697.041221,481.694007 698.627221,485.238007 C696.253221,488.602007 693.853221,491.949007 691.405221,495.261007 C689.759221,497.490007 692.909221,500.236007 695.075221,498.931007 C695.380221,498.748007 695.674221,498.551007 695.975221,498.364007 C698.496221,497.592007 701.008221,496.756007 703.510221,495.879007 C704.446221,497.859007 705.391221,499.835007 706.362221,501.799007 C707.391221,503.879007 710.613221,503.257007 711.182221,501.169007 C711.980221,498.239007 712.618221,495.280007 713.163221,492.304007 C716.145221,491.152007 719.112221,489.975007 722.063221,488.802007 C723.887221,488.078007 724.673221,485.410007 722.650221,484.316007" id="Fill-26" transform="translate(707.395326, 486.088781) rotate(-10.000000) translate(-707.395326, -486.088781) "></path>
            </g>
        </g>
    </g>
</svg>