<?xml version="1.0" encoding="UTF-8"?>
<svg width="359px" height="143px" viewBox="0 0 359 143" version="1.1" xmlns="http://www.w3.org/2000/svg" xmlns:xlink="http://www.w3.org/1999/xlink">
    <!-- Generator: Sketch 59.1 (86144) - https://sketch.com -->
    <title>Artboard Copy</title>
    <desc>Created with Sketch.</desc>
    <g id="Artboard-Copy" stroke="none" stroke-width="1" fill="none" fill-rule="evenodd">
        <g id="Group-9-Copy">
            <path d="M26.5424,139.0212 C26.4103,138.9037 26.2453,138.7862 26.0472,138.6687 C25.8491,138.5511 25.684,138.4336 25.552,138.3161 C25.4199,138.1986 25.3539,138.081 25.3539,137.9635 C25.2219,137.846 25.1558,137.6697 25.1558,137.4347 C25.1558,137.1996 25.2219,137.0821 25.3539,137.0821 C25.8821,136.8471 26.4103,136.4064 26.9385,135.76 C27.4667,135.1136 27.9289,134.6729 28.3251,134.4379 C30.0417,133.6152 31.3623,132.4988 32.2866,131.0885 C33.7392,128.5031 34.9937,126.9753 36.0501,126.5052 C36.0501,126.3877 36.1161,126.2702 36.2482,126.1527 C36.5123,125.6826 36.9414,125.0068 37.5357,124.1254 C38.1299,123.244 38.5591,122.627 38.8232,122.2745 C39.0873,121.6869 39.7805,120.8642 40.903,119.8065 C42.0254,118.7488 42.7187,117.8674 42.9828,117.1623 C43.1148,116.6922 43.577,116.2221 44.3693,115.7521 C45.2937,115.282 46.152,114.4006 46.9443,113.1078 C47.2084,112.5202 47.7367,111.5213 48.529,110.1111 L51.104,105.5277 C52.9527,101.8846 53.9431,100.0042 54.0751,99.8867 C54.3392,99.6517 54.4713,99.3579 54.4713,99.0053 C54.6033,98.5352 54.8344,97.8007 55.1646,96.8018 C55.4947,95.8029 55.7918,95.0684 56.0559,94.5983 C56.4521,93.7756 56.6501,91.8365 56.6501,88.781 C56.6501,88.3109 56.4851,87.5764 56.1549,86.5775 C55.8248,85.5785 55.6597,84.9028 55.6597,84.5502 C55.5277,83.8451 55.1315,83.0225 54.4713,82.0823 C53.811,81.1421 53.4149,80.4958 53.2828,80.1432 C53.1508,80.1432 53.0847,80.0844 53.0847,79.9669 C51.236,78.5567 49.8495,77.4402 48.9251,76.6176 C46.5482,74.6197 43.7751,73.562 40.6059,73.4445 C38.2289,73.2095 34.6635,73.0919 29.9097,73.0919 C27.9289,73.0919 25.7501,73.5033 23.3731,74.3259 C23.109,74.4434 22.6468,74.5903 21.9866,74.7666 C21.3263,74.9429 20.8642,75.0898 20.6,75.2073 L20.6,73.4445 C20.7321,73.2095 20.9962,72.5631 21.3924,71.5054 C21.7885,70.4477 22.1186,69.6251 22.3827,69.0375 C23.043,67.6272 24.3635,63.8665 26.3443,57.7555 C27.1366,55.405 28.5231,52.4082 30.5039,48.7651 C31.0321,47.7074 31.9565,46.0915 33.277,43.9174 C34.5975,41.743 35.5879,40.069 36.2482,38.893 C37.7007,36.308 40.936,31.901 45.954,25.672 L46.7463,24.967 C48.0668,23.792 49.1232,22.91 49.9155,22.323 C50.9719,21.265 52.2264,20.325 53.679,19.502 C54.2072,19.267 54.6033,19.267 54.8674,19.502 C55.1315,19.62 55.2636,19.972 55.2636,20.56 C54.4713,23.146 53.2828,26.906 51.6982,31.842 C51.4341,32.43 51.5661,32.959 52.0944,33.429 C53.5469,34.956 54.9995,36.073 56.4521,36.778 C57.9046,37.366 59.2251,37.131 60.4136,36.073 C62.1303,34.192 63.8469,31.666 65.5636,28.493 C66.0918,27.67 66.488,26.319 66.7521,24.438 C66.7521,24.086 66.7191,23.527 66.653,22.764 C66.587,22 66.62,21.5 66.7521,21.265 C67.1482,20.207 67.0822,19.032 66.554,17.74 C65.7617,14.096 63.3187,11.805 59.2251,10.865 C56.188,10.159 54.2732,8.984 53.4809,7.339 C52.9527,7.692 52.1604,8.103 51.104,8.573 C46.7463,10.571 42.8507,12.98 39.4174,15.8 C34.5315,19.914 30.702,23.733 27.9289,27.259 C22.3827,34.31 18.7513,39.246 17.0347,42.0664 C15.0539,45.357 13.9314,47.4136 13.6673,48.2363 L13.0731,49.2939 C12.9411,49.6465 12.6109,50.2047 12.0827,50.9686 C11.5545,51.7325 11.2244,52.3495 11.0923,52.8196 C10.8282,53.8773 10.267,55.405 9.4087,57.4029 C8.5503,59.4007 7.9891,60.9285 7.725,61.9862 C7.4609,63.0439 6.9327,64.7186 6.1404,67.0102 C5.3481,69.3019 4.8199,71.0941 4.5558,72.3868 C4.5558,72.6219 4.3577,73.2682 3.9615,74.3259 L2.7731,78.5567 C2.7731,79.4968 2.7071,80.202 2.575,80.672 C2.0468,82.5524 2.7731,84.0802 4.7539,85.2554 C6.4705,85.9605 7.5269,86.6656 7.9231,87.3707 C8.0551,87.4883 8.1872,87.547 8.3193,87.547 C8.5834,87.6645 9.3096,87.8996 10.4981,88.2521 C11.1584,88.2521 12.1487,88.1346 13.4693,87.8996 C13.8654,87.8996 14.6577,87.7233 15.8462,87.3707 C17.0347,87.0182 17.959,86.9007 18.6193,87.0182 C18.7513,87.0182 18.8834,86.9594 19.0154,86.8419 C22.4488,85.6667 25.0238,84.6678 26.7404,83.8451 C27.2687,83.4925 28.193,83.0812 29.5135,82.6111 C32.0225,82.0235 33.343,81.671 33.4751,81.5535 C34.5315,81.0834 35.3238,80.9658 35.852,81.2009 C36.1161,81.3184 36.4793,81.4653 36.9414,81.6416 C37.4036,81.8179 37.7668,81.9648 38.0309,82.0823 L32.6828,96.8899 C30.9661,101.5908 27.7969,107.9369 23.1751,115.9283 C21.5904,118.7488 20.8642,120.5704 20.9962,121.3931 C20.9962,121.5106 20.8642,121.8044 20.6,122.2745 C20.468,122.392 19.7417,123.5084 18.4212,125.6238 C18.4212,125.7413 18.2891,126.0939 18.025,126.6815 C17.7609,127.2691 17.4968,127.6804 17.2327,127.9155 C15.6481,129.7958 13.8654,131.5586 11.8846,133.2039 C10.4321,134.2616 8.9135,134.6729 7.3289,134.4379 C6.6686,134.3204 5.5462,134.2616 3.9615,134.2616 C3.6974,133.9091 3.4994,133.3802 3.3673,132.6751 C3.1032,131.8524 2.641,131.3824 1.9808,131.2648 C1.0564,131.2648 0.3962,131.6762 0,132.4988 C1.3205,133.0864 1.4526,133.9678 0.3962,135.143 C0.6603,135.3781 1.0564,135.6131 1.5846,135.8481 L0.7923,136.5533 C1.0564,136.6708 1.6176,136.8177 2.476,136.994 C3.3343,137.1703 3.9615,137.3172 4.3577,137.4347 C4.4898,137.4347 4.6218,137.4934 4.7539,137.611 C4.8859,137.7285 5.018,137.846 5.15,137.9635 C5.2821,138.081 5.4801,138.2279 5.7442,138.4042 C6.0083,138.5805 6.2725,138.7568 6.5366,138.9331 C6.8007,139.1094 6.9987,139.1975 7.1308,139.1975 C7.5269,139.08 7.9561,139.08 8.4183,139.1975 C8.8805,139.315 9.1776,139.3738 9.3096,139.3738 C9.3096,139.6088 9.3757,139.8439 9.5077,140.0789 L9.5077,140.4315 C9.7718,141.2541 10.4321,141.5479 11.4885,141.3129 C11.7526,141.1954 12.4128,140.9603 13.4693,140.6077 L14.6577,141.6654 C15.8462,141.4304 16.5725,141.4304 16.8366,141.6654 L17.6289,141.8417 C17.7609,141.6067 17.827,141.3129 17.827,140.9603 C17.4308,140.4902 16.9686,140.0789 16.4404,139.7263 C16.3084,139.4913 15.9122,139.2563 15.252,139.0212 C16.3084,138.7862 17.4968,138.5511 18.8174,138.3161 C19.0815,139.2563 19.1475,139.8439 19.0154,140.0789 C18.6193,141.0191 19.0154,141.6654 20.2039,142.018 C20.468,141.9005 21.0622,141.6067 21.9866,141.1366 C22.911,140.6665 23.5712,140.2552 23.9674,139.9026 C24.8917,139.315 25.7501,139.0212 26.5424,139.0212 Z M20.6,126.8578 C20.3359,126.9753 20.0718,127.0341 19.8077,127.0341 L19.6097,126.8578 C19.6097,126.6228 19.7417,126.5052 20.0058,126.5052 C20.1379,126.5052 20.3359,126.6228 20.6,126.8578 Z" id="Fill-1" fill="#EFF845"></path>
            <path d="M86.1188,5.779 C84.0866,9.629 82.2149,13.38 80.5037,17.032 C80.2898,17.526 79.9956,18.291 79.6213,19.327 C79.247,20.364 78.9528,21.129 78.7389,21.622 C77.2416,25.373 76.2255,28.187 75.6907,30.062 C74.6212,33.418 73.6586,37.021 72.803,40.871 C72.4821,42.1542 71.9741,44.2271 71.2789,47.0898 C70.5837,49.9524 70.0222,52.124 69.5943,53.6047 C69.4874,54.2957 69.3002,55.3075 69.0328,56.6401 C68.7654,57.9727 68.5248,58.9845 68.3109,59.6755 C67.4553,63.4265 66.8135,66.2891 66.3857,68.2634 C66.1718,70.3363 65.9044,71.7676 65.5836,72.5573 C65.1557,73.6431 64.8349,75.3212 64.621,77.5916 C64.621,77.789 64.4605,78.7761 64.1397,80.5529 C63.9258,82.7246 63.7119,84.452 63.498,85.7353 C63.498,85.9327 63.4712,86.2289 63.4177,86.6237 C63.3643,87.0185 63.3375,87.3147 63.3375,87.5121 C63.2306,87.8082 63.0701,88.3511 62.8562,89.1408 C62.3215,96.2481 61.9471,100.4433 61.7332,101.7266 C61.4124,103.6021 61.038,106.4153 60.6102,110.1664 C60.3963,110.9561 60.3963,111.5237 60.6102,111.8692 C60.8241,112.2146 61.3054,112.5355 62.0541,112.8316 C63.3375,113.3251 64.0862,113.9668 64.3001,114.7565 C64.514,115.3487 64.9418,115.6449 65.5836,115.6449 L65.5836,114.9045 C65.5836,114.2136 65.6638,113.8187 65.8242,113.72 C65.9846,113.6213 66.4392,113.6213 67.1879,113.72 L68.4713,113.72 C68.3644,113.5226 68.2574,113.3005 68.1505,113.0537 C68.0435,112.8069 67.99,112.6342 67.99,112.5355 C68.4178,112.5355 68.9526,112.5848 69.5943,112.6835 C70.2361,112.7822 70.7708,112.8316 71.1987,112.8316 L71.6799,110.6106 C71.6799,110.4132 71.8939,109.5494 72.3217,108.0194 C72.7495,106.4894 73.0169,105.3295 73.1238,104.5398 C73.2308,103.9476 73.311,103.1085 73.3645,102.0227 C73.418,100.9369 73.4447,100.1965 73.4447,99.8017 L73.926,94.0271 C74.1399,89.9799 74.5677,86.525 75.2094,83.6624 C75.5303,81.7868 75.9046,80.2075 76.3325,78.9242 C77.0811,75.9629 77.6159,73.9886 77.9368,73.0015 C78.0437,72.508 79.0063,69.4973 80.8245,63.9694 C81.5732,61.4029 82.4823,58.3922 83.5519,54.9373 C84.6214,50.8901 85.1027,48.4224 84.9957,47.534 C84.9957,47.1391 85.1027,46.7443 85.3166,46.3494 C85.6375,45.7572 85.7979,45.4117 85.7979,45.3129 C86.6535,42.9439 87.2952,40.575 87.7231,38.206 C88.4717,34.948 89.5413,30.95 90.9317,26.212 C92.429,21.573 93.4451,17.526 93.9799,14.071 C94.1938,12.097 93.766,10.517 92.6964,9.333 C91.9478,8.642 90.8247,7.704 89.3274,6.519 C88.6857,5.927 87.6161,5.68 86.1188,5.779 Z" id="Fill-2" fill="#EFF845"></path>
            <path d="M105.865,7.339 C106.4,8.234 106.453,9.52 106.025,11.197 C105.918,11.757 105.705,12.484 105.384,13.378 C105.063,14.273 104.849,14.944 104.742,15.391 C102.282,24.786 100.731,30.714 100.089,33.174 C99.6616,34.74 98.8862,37.731 97.7632,42.1492 C96.6402,46.5668 95.7043,50.0059 94.9556,52.4664 C94.8487,52.5782 94.5278,54.0322 93.993,56.8282 C93.7791,57.7229 93.6187,58.338 93.5117,58.6735 C92.6561,62.0287 92.0679,64.5451 91.747,66.2227 C91.3192,68.0122 91.0518,69.2983 90.9448,70.0812 C90.8379,70.6404 90.3566,72.8492 89.501,76.7077 C88.6453,80.5662 88.0036,83.502 87.5758,85.5151 C86.9341,88.9822 86.2389,93.7354 85.4902,99.7747 C85.4902,100.1103 85.4367,100.6415 85.3298,101.3685 C85.2228,102.0954 85.1158,102.6826 85.0089,103.1299 C84.9019,103.801 84.7148,104.7516 84.4474,105.9819 C84.18,107.2121 83.9928,108.1068 83.8859,108.666 C83.565,111.2383 83.1907,114.7054 82.7629,119.0671 C82.6559,119.6263 82.5489,120.4931 82.442,121.6674 C82.335,122.8417 82.2816,123.7644 82.2816,124.4355 C82.2816,125.8894 82.4955,126.84 82.9233,127.2874 C83.3511,127.6229 84.2067,129.1887 85.4902,131.9847 C86.2389,133.6623 87.3619,134.8086 88.8592,135.4237 C90.3566,136.0389 91.8005,135.955 93.1909,135.1721 C93.6187,134.9484 94.0465,134.8366 94.4743,134.8366 C103.138,133.2708 108.271,132.1524 109.876,131.4814 C113.084,129.9156 115.437,128.5735 116.935,127.4551 C118.218,126.4486 120.357,125.3302 123.352,124.0999 C123.673,123.9881 124.127,123.8483 124.716,123.6805 C125.304,123.5128 125.758,123.373 126.079,123.2611 C127.577,122.7019 128.325,121.6395 128.325,120.0737 C128.325,119.0671 128.539,118.3961 128.967,118.0606 C129.074,117.9487 129.234,117.8928 129.448,117.8928 L129.769,118.2283 C129.983,118.3402 130.144,118.452 130.25,118.5639 C131.106,117.6691 131.641,116.4389 131.855,114.8731 C130.999,114.2021 130.144,114.0343 129.288,114.3699 C126.293,115.0409 124.101,115.5442 122.71,115.8797 C116.079,117.3336 111.106,118.8435 107.79,120.4092 L99.1268,124.4355 C97.9503,124.8828 97.1482,125.0506 96.7204,124.9387 L96.7204,123.2611 C96.9343,120.577 97.1482,118.5079 97.3621,117.054 C97.576,115.4883 97.8701,113.1396 98.2445,110.0081 C98.6188,106.8766 98.9129,104.5279 99.1268,102.9622 C99.5547,99.3833 99.8755,96.6432 100.089,94.7419 C100.196,94.2946 100.517,92.0019 101.052,87.8638 C101.587,83.7257 102.068,80.5942 102.496,78.4692 C103.138,73.4364 104.1,68.6832 105.384,64.2096 C106.56,60.5189 107.523,56.94 108.271,53.473 C109.02,49.8941 110.09,45.5882 111.48,40.555 C112.336,36.977 112.977,34.348 113.405,32.671 L115.33,26.128 C116.186,23.108 116.614,21.263 116.614,20.592 C117.149,16.566 116.614,13.099 115.01,10.191 C113.94,8.29 110.892,7.339 105.865,7.339 Z" id="Fill-3" fill="#EFF845"></path>
            <path d="M161.091,47.5295 C161.091,47.1347 161.038,46.8879 160.931,46.7892 C160.717,46.7892 160.556,46.4437 160.449,45.7527 C160.343,45.0617 160.102,44.6422 159.728,44.4941 C159.353,44.3461 158.631,44.2227 157.562,44.124 C155.316,43.8278 152.909,44.124 150.342,45.0124 L140.235,48.566 C138.524,49.1583 137.187,49.6025 136.224,49.8986 C136.224,49.7012 136.251,49.4544 136.305,49.1583 C136.358,48.8621 136.438,48.6154 136.545,48.4179 C137.829,44.6669 138.684,42.2485 139.112,41.163 C139.54,39.978 140.235,38.275 141.198,36.054 C142.16,33.833 142.749,32.476 142.962,31.982 C143.283,31.291 143.711,30.329 144.246,29.095 C144.781,27.861 145.155,26.948 145.369,26.356 C145.583,25.764 146.011,24.777 146.652,23.395 L148.096,19.397 C149.166,17.324 149.754,16.139 149.861,15.843 C150.182,15.152 150.77,14.659 151.626,14.362 C153.016,13.671 154.46,13.277 155.957,13.178 C158.31,12.981 160.343,12.635 162.054,12.141 C163.016,11.845 164.434,11.426 166.305,10.883 C168.177,10.34 169.594,9.92 170.557,9.624 C170.771,9.624 171.118,9.55 171.599,9.402 C172.081,9.254 172.375,9.155 172.482,9.106 C172.589,9.057 172.829,8.983 173.204,8.884 C173.578,8.785 173.792,8.687 173.845,8.588 C173.899,8.489 174.033,8.366 174.247,8.218 C174.46,8.07 174.567,7.922 174.567,7.773 C174.567,7.625 174.594,7.428 174.648,7.181 C174.701,6.934 174.701,6.663 174.648,6.367 C174.594,6.071 174.514,5.725 174.407,5.33 C174.3,5.034 174.22,4.565 174.166,3.924 C174.113,3.282 173.979,2.715 173.765,2.221 C173.765,2.122 173.739,1.974 173.685,1.777 C173.632,1.579 173.605,1.431 173.605,1.333 C172.749,0.444 172.161,0 171.84,0 L171.038,0 C166.439,0.395 162.802,0.74 160.129,1.036 C155.102,1.53 150.984,2.468 147.775,3.85 C147.134,4.047 146.278,4.047 145.208,3.85 C142.428,3.652 140.289,3.455 138.791,3.257 C137.401,3.159 136.224,3.899 135.262,5.478 C132.909,10.71 130.823,15.893 129.005,21.025 C128.363,23.098 127.508,26.208 126.438,30.354 C126.01,32.131 125.636,33.512 125.315,34.5 C124.673,36.869 124.192,38.695 123.871,39.978 C123.657,40.669 123.39,41.681 123.069,43.0135 C122.748,44.3461 122.534,45.3579 122.427,46.0489 C121.465,49.2076 120.716,51.9222 120.181,54.1926 C119.967,54.7848 119.753,55.5992 119.54,56.6357 C119.326,57.6721 119.219,58.2397 119.219,58.3384 C118.684,60.0165 117.989,62.5337 117.133,65.8899 C117.026,65.9886 116.973,66.186 116.973,66.4821 C116.973,66.7783 116.919,67.025 116.812,67.2225 C116.064,70.0851 115.368,72.5529 114.727,74.6258 C114.62,75.0207 114.486,75.6129 114.325,76.4026 C114.165,77.1923 114.031,77.7846 113.924,78.1794 L111.999,85.2867 C111.999,85.4841 111.866,86.0517 111.598,86.9894 C111.331,87.9272 111.144,88.6429 111.037,89.1364 C110.716,90.2222 110.555,91.2093 110.555,92.0978 C110.128,94.8617 109.593,98.6127 108.951,103.3509 L108.951,105.4238 C108.951,106.0161 109.272,106.3616 109.914,106.4603 C110.769,106.6577 111.678,107.2993 112.641,108.3851 C113.497,109.1748 114.566,109.545 115.85,109.4956 C117.133,109.4463 118.203,109.0268 119.058,108.2371 C119.165,108.0397 119.753,107.6942 120.823,107.2006 C122.106,106.8058 125.128,106.2135 129.887,105.4238 C134.647,104.6341 137.615,104.0912 138.791,103.7951 C142,103.0054 144.834,101.7715 147.294,100.0934 C148.578,99.1063 149.433,98.2672 149.861,97.5762 C149.968,97.3788 150.316,96.8606 150.904,96.0215 C151.492,95.1825 152.054,94.6149 152.588,94.3188 C152.695,94.22 152.856,94.0226 153.07,93.7265 C153.177,93.6278 153.497,92.9368 154.032,91.6536 C154.353,90.9626 154.407,90.2716 154.193,89.5806 L151.786,89.5806 L145.048,90.469 C140.984,90.9626 137.775,91.851 135.422,93.1342 L129.165,96.2436 C128.951,96.3423 128.631,96.4904 128.203,96.6878 C127.882,96.7865 127.668,96.8853 127.561,96.984 C127.347,96.1943 127.24,95.7501 127.24,95.6514 L127.24,87.8038 C127.775,81.585 128.203,77.5872 128.524,75.8104 L130.449,68.7031 C131.732,63.7676 132.695,60.1152 133.337,57.7462 C133.444,57.45 133.818,56.6603 134.46,55.3771 C135.315,55.7719 135.957,56.0187 136.385,56.1174 C136.706,56.2161 137.08,56.2655 137.508,56.2655 C139.219,56.0681 140.396,55.8706 141.037,55.6732 C144.46,55.1797 146.438,54.8342 146.973,54.6368 C150.182,53.7483 153.39,52.7119 156.599,51.5273 C156.92,51.4286 157.401,51.3052 158.043,51.1572 C158.685,51.0091 159.219,50.861 159.647,50.713 C160.075,50.5649 160.503,50.2441 160.931,49.7505 C160.931,49.4544 160.984,49.1089 161.091,48.7141 C161.198,48.3192 161.252,48.0724 161.252,47.9737 C161.145,47.875 161.091,47.7763 161.091,47.6776 L161.091,47.5295 Z" id="Fill-4" fill="#EFF845"></path>
            <path d="M198.514,70.6113 L198.033,70.6113 C197.605,68.8345 197.337,67.4525 197.23,66.4654 C197.23,64.2938 196.856,61.7273 196.107,58.7659 C195.145,55.9033 194.557,54.0278 194.343,53.1394 C192.738,48.2038 191.829,45.2424 191.615,44.2553 C190.76,40.109 190.332,34.532 190.332,27.524 C190.332,25.747 190.011,23.18 189.369,19.824 C189.048,18.64 188.46,17.702 187.604,17.011 C186.856,16.517 185.626,15.9 183.915,15.16 C182.203,14.42 181.134,13.951 180.706,13.753 C180.385,14.148 180.225,14.444 180.225,14.642 C180.118,15.037 179.797,15.9 179.262,17.233 C178.727,18.566 178.353,19.577 178.139,20.268 C177.711,21.552 177.123,23.501 176.374,26.117 C175.626,28.733 175.091,30.682 174.77,31.966 C174.449,32.953 174.075,34.384 173.647,36.26 C173.219,38.135 172.898,39.517 172.684,40.406 C172.15,42.8734 171.347,46.4763 170.278,51.2145 C169.422,56.1501 168.941,58.7659 168.834,59.062 C167.551,66.268 166.909,69.9203 166.909,70.019 L166.909,70.4632 C166.802,71.1542 166.615,72.24 166.347,73.7207 C166.08,75.2014 165.893,76.3366 165.786,77.1262 C165.679,77.7185 165.518,78.6316 165.305,79.8655 C165.091,81.0994 164.93,82.0125 164.823,82.6047 C164.823,83.5918 164.77,84.3322 164.663,84.8257 C164.663,85.1219 164.583,85.5908 164.422,86.2324 C164.262,86.874 164.128,87.3922 164.021,87.7871 C163.807,89.169 163.647,90.1562 163.54,90.7484 C163.005,93.0188 162.149,97.2634 160.973,103.4822 C160.866,103.7783 160.759,104.494 160.652,105.6292 C160.545,106.7644 160.385,107.6281 160.171,108.2204 C159.743,110.392 159.743,112.5637 160.171,114.7353 C160.492,115.7224 161.24,116.2653 162.417,116.364 C163.7,116.7589 164.609,117.1044 165.144,117.4005 C167.283,118.5851 168.781,118.0915 169.636,115.9198 C169.957,115.3276 170.171,114.9821 170.278,114.8834 C171.027,113.995 171.508,112.9091 171.722,111.6259 C172.043,109.8491 172.417,106.9371 172.845,102.8899 C173.38,98.7441 173.754,96.2269 173.968,95.3385 C174.075,94.845 174.877,91.3407 176.374,84.8257 C176.588,84.3322 176.802,83.3944 177.016,82.0125 C177.658,79.6434 178.086,77.6692 178.299,76.0898 C178.513,75.0039 178.727,73.3752 178.941,71.2036 C178.941,70.71 179.021,69.9697 179.182,68.9825 C179.342,67.9954 179.476,67.2551 179.583,66.7615 C179.583,65.9718 179.85,65.3302 180.385,64.8367 C180.385,65.1328 180.412,65.4536 180.465,65.7991 C180.519,66.1446 180.546,66.416 180.546,66.6135 L181.508,74.1649 C182.578,80.5811 183.166,84.4802 183.273,85.8622 C183.487,87.8364 183.781,90.7978 184.155,94.7462 C184.53,98.6947 184.824,101.656 185.038,103.6303 C185.252,106.3942 185.679,110.0465 186.321,114.5872 C186.428,115.8705 186.99,116.8576 188.006,117.5486 C189.022,118.2396 190.225,118.437 191.615,118.1409 C192.471,117.9434 193.647,117.8447 195.145,117.8447 C195.252,117.8447 195.359,117.7954 195.466,117.6967 L195.466,116.8083 C195.68,116.7095 196.348,116.3887 197.471,115.8458 C198.594,115.3029 199.476,115.0808 200.118,115.1795 C200.225,115.1795 200.279,115.1302 200.279,115.0314 C200.492,114.7353 201.509,114.2418 203.327,113.5508 C203.434,113.5508 203.648,113.4521 203.968,113.2546 C204.289,113.0572 204.503,112.9585 204.61,112.9585 C204.931,112.9585 205.198,113.2053 205.412,113.6988 C205.84,112.7117 205.359,112.1195 203.968,111.922 C204.289,111.7246 204.557,111.3544 204.771,110.8115 C204.985,110.2686 205.359,110.0465 205.894,110.1452 C205.894,109.6517 205.92,108.862 205.974,107.7762 C206.027,106.6903 206.054,105.9006 206.054,105.4071 C206.054,104.8148 206.134,103.7783 206.295,102.2977 C206.455,100.817 206.562,99.7558 206.616,99.1142 C206.669,98.4726 206.589,97.4114 206.375,95.9308 L206.375,95.6346 C206.482,94.5488 206.616,92.846 206.776,90.5263 C206.936,88.2066 207.07,86.4545 207.177,85.2699 C207.177,83.888 207.07,83.0983 206.856,82.9009 C206.535,82.8022 206.535,82.4567 206.856,81.8644 C206.856,81.5683 206.883,81.1981 206.936,80.7539 C206.99,80.3097 207.017,79.9889 207.017,79.7915 C207.017,79.594 207.043,79.2732 207.097,78.829 C207.15,78.3848 207.231,78.064 207.338,77.8666 C207.765,76.3859 207.765,75.3494 207.338,74.7572 C207.444,74.6585 207.819,74.4117 208.461,74.0168 C207.605,73.622 207.444,73.0297 207.979,72.24 C208.3,71.8452 208.487,71.2282 208.541,70.3892 C208.594,69.5501 208.728,68.9332 208.942,68.5383 L208.781,68.3903 C208.781,65.9225 208.995,64.3431 209.423,63.6521 C209.53,63.5534 209.584,63.356 209.584,63.0599 C209.584,62.7637 209.637,62.5169 209.744,62.3195 C209.744,61.5298 209.851,60.444 210.065,59.062 C210.065,57.7788 210.439,56.4955 211.188,55.2123 C211.295,55.0149 211.348,54.6694 211.348,54.1758 C211.455,53.4848 211.642,52.4977 211.91,51.2145 C212.177,49.9312 212.364,48.9935 212.471,48.4012 L212.471,48.1051 C211.723,48.3025 211.295,48.4506 211.188,48.5493 C211.188,47.8583 211.241,47.4634 211.348,47.3647 C211.99,47.1673 212.471,47.0686 212.792,47.0686 C212.792,46.4763 212.739,46.1308 212.632,46.0321 C211.99,45.5386 211.99,44.8476 212.632,43.9592 C212.739,43.7618 212.979,43.4656 213.354,43.0708 C213.728,42.6759 213.969,42.4292 214.076,42.3305 C212.899,41.639 212.792,40.702 213.755,39.517 C214.29,38.727 214.771,37.346 215.199,35.371 C215.52,34.384 215.68,33.841 215.68,33.743 C216.749,32.459 217.124,30.929 216.803,29.152 C216.803,28.758 216.856,28.511 216.963,28.412 C217.284,27.425 217.124,26.635 216.482,26.043 L217.445,25.747 C217.338,25.056 217.418,24.069 217.685,22.786 C217.953,21.502 218.086,20.614 218.086,20.12 C218.193,20.022 218.354,19.972 218.568,19.972 C218.782,19.972 218.942,19.923 219.049,19.824 C219.156,19.429 219.29,18.763 219.45,17.825 C219.611,16.888 219.744,16.172 219.851,15.678 C219.851,15.58 220.119,14.691 220.653,13.013 L221.937,12.717 C221.509,12.125 221.242,11.779 221.135,11.681 C221.776,11.088 222.044,10.447 221.937,9.756 C221.83,9.065 222.044,8.423 222.578,7.831 C222.792,7.633 223.006,7.239 223.22,6.646 C223.22,6.054 222.846,5.758 222.097,5.758 C221.562,5.758 221.188,6.054 220.974,6.646 L220.974,7.387 C221.402,9.163 220.814,11.236 219.209,13.605 C218.14,14.987 217.873,16.221 218.407,17.307 C217.979,17.899 217.445,18.788 216.803,19.972 L216.322,20.861 C215.894,21.453 215.573,21.947 215.359,22.341 C215.359,22.44 215.252,22.934 215.038,23.822 C214.824,24.71 214.61,25.352 214.397,25.747 C213.969,26.537 213.434,27.721 212.792,29.301 C212.792,29.399 212.739,29.72 212.632,30.263 C212.525,30.806 212.364,31.225 212.15,31.522 C211.937,31.818 211.616,32.064 211.188,32.262 C211.188,32.361 211.161,32.459 211.108,32.558 C211.054,32.657 211.027,32.755 211.027,32.854 C211.027,33.446 210.76,34.31 210.225,35.445 C209.691,36.581 209.37,37.296 209.263,37.592 C208.835,38.777 208.514,39.616 208.3,40.109 L205.894,45.4399 C205.787,45.6373 205.733,45.9828 205.733,46.4763 C205.84,47.1673 205.626,48.0064 205.091,48.9935 C204.45,50.3754 203.701,52.4484 202.845,55.2123 C202.525,56.3968 201.936,58.4451 201.081,61.3571 C200.225,64.2691 199.583,66.4654 199.156,67.9461 C198.942,69.1306 198.728,70.019 198.514,70.6113 Z M209.263,54.472 C209.797,54.9655 209.851,55.5084 209.423,56.1007 C209.316,55.7059 209.263,55.1629 209.263,54.472 Z" id="Fill-5" fill="#EFF845"></path>
            <path d="M241.285,7.685 C240.934,8.687 240.583,9.522 240.232,10.19 C239.062,12.64 238.184,14.532 237.599,15.868 C235.493,21.434 233.562,26.945 231.807,32.4 C229.349,39.637 227.067,46.9842 224.961,54.4432 C224.376,56.3358 223.674,59.0911 222.854,62.7093 C222.035,66.3274 221.45,68.8601 221.099,70.3074 C220.748,71.4207 219.753,74.9553 218.115,80.9114 C216.477,86.8674 215.307,91.4597 214.605,94.6882 C213.902,97.1374 212.089,104.6521 209.163,117.2321 C208.929,118.1227 208.988,118.8464 209.339,119.403 C210.392,120.8503 211.504,121.8522 212.674,122.4089 C212.908,122.1862 213.171,121.9914 213.464,121.8244 C213.756,121.6574 213.961,121.5182 214.078,121.4069 C214.78,121.0729 215.248,120.9059 215.482,120.9059 C217.121,121.3513 218.525,120.739 219.695,119.069 C220.397,118.4011 221.099,118.0114 221.801,117.9001 C222.854,118.902 223.615,119.3474 224.083,119.236 C225.253,117.2321 225.897,116.1745 226.014,116.0632 C226.248,115.6179 226.307,115.2282 226.19,114.8942 C226.19,114.5603 226.365,114.0593 226.716,113.3913 C227.067,112.3894 227.243,111.8327 227.243,111.7214 C227.711,107.9362 228.179,105.153 228.647,103.3718 C228.998,102.0359 229.378,100.6443 229.788,99.197 C230.198,97.7497 230.666,96.1633 231.192,94.4377 C231.719,92.7121 232.099,91.3484 232.333,90.3464 C233.503,86.6726 234.205,84.1121 234.44,82.6648 C234.44,82.2195 234.557,81.4959 234.791,80.4939 C235.025,79.492 235.142,78.7127 235.142,78.156 C235.493,76.5974 236.078,73.7029 236.897,69.4724 C237.248,68.1365 237.658,66.1326 238.126,63.4607 C238.594,60.7889 238.945,58.8406 239.179,57.616 C239.53,55.5008 240.291,51.7713 241.461,46.4276 C241.461,46.3162 241.519,46.2606 241.636,46.2606 C241.87,45.4813 242.251,44.3123 242.777,42.7537 C243.304,41.195 243.684,40.026 243.918,39.247 C244.035,38.913 244.211,38.384 244.445,37.66 C244.679,36.937 244.796,36.464 244.796,36.241 C245.264,34.571 245.556,33.18 245.673,32.066 C245.79,31.732 245.907,31.176 246.025,30.396 C246.142,29.617 246.259,29.06 246.376,28.726 C246.376,28.281 246.551,27.891 246.902,27.557 L249.009,17.538 C249.126,16.981 249.243,16.119 249.36,14.95 C249.477,13.781 249.594,12.918 249.711,12.361 C249.828,12.027 249.915,11.471 249.974,10.691 C250.032,9.912 250.062,9.411 250.062,9.188 C250.179,8.409 250.647,7.964 251.466,7.852 C252.87,7.852 254.86,7.63 257.434,7.184 L259.54,6.683 C260.945,6.127 263.402,4.68 266.913,2.342 C267.732,2.119 268.141,1.507 268.141,0.505 C267.673,0.393 267.03,0.338 266.21,0.338 C264.221,0.672 260.535,0.727 255.152,0.505 C250.471,0.281962908 246.961,0.226 244.62,0.338 C237.716,0.894 226.246,2.063 219.81,3.845 C219.693,3.845 219.459,3.956 219.108,4.179 C218.757,4.401 218.406,4.568 218.054,4.68 C219.693,5.904 221.097,6.628 222.267,6.85 C224.491,6.962 232.743,7.129 237.424,7.351 C239.062,7.574 240.349,7.685 241.285,7.685 Z" id="Fill-6" fill="#EFF845"></path>
            <path d="M265.426,120.7344 C269.491,119.155 271.951,117.8718 272.806,116.8847 C272.806,116.786 272.86,116.7366 272.967,116.7366 L273.288,116.7366 C273.395,116.5392 273.555,116.3664 273.769,116.2184 C273.983,116.0703 274.223,115.8729 274.491,115.6261 L275.534,114.6637 L275.694,114.3675 C275.801,114.2688 276.095,114.0467 276.576,113.7012 C277.058,113.3557 277.432,113.0349 277.699,112.7388 C277.967,112.4427 278.154,112.0478 278.261,111.5543 C278.475,111.3568 278.689,111.2088 278.903,111.1101 C280.828,110.5178 282.432,109.1358 283.716,106.9642 C283.823,106.9642 283.876,106.9148 283.876,106.8161 C286.122,104.7432 287.406,103.5093 287.726,103.1144 C288.154,102.6209 289.063,101.535 290.454,99.8569 C290.561,99.6595 290.694,99.4127 290.855,99.1166 C291.015,98.8205 291.149,98.6231 291.256,98.5243 C291.684,97.1424 292.272,96.3527 293.021,96.1553 C293.128,96.1553 293.341,95.8591 293.662,95.2669 C294.09,94.4772 294.411,93.9343 294.625,93.6381 C294.732,93.4407 294.946,93.1199 295.267,92.6757 C295.587,92.2315 295.801,91.9107 295.908,91.7132 C296.871,90.1339 297.673,89.048 298.315,88.4558 C298.529,88.2583 298.85,87.8635 299.277,87.2712 C299.705,86.679 300.267,85.8152 300.962,84.6801 C301.657,83.5449 302.165,82.6811 302.486,82.0889 C302.593,81.8915 303.181,80.9537 304.251,79.2756 C304.679,78.5846 305.24,77.5975 305.935,76.3143 C306.631,75.031 307.139,74.0933 307.459,73.501 C308.743,71.3293 309.492,70.0461 309.705,69.6512 C310.133,68.8615 310.748,67.5783 311.55,65.8015 C312.353,64.0247 312.968,62.6921 313.395,61.8037 C314.465,59.632 315.374,56.9668 316.123,53.808 C316.123,53.5119 316.149,53.0924 316.203,52.5495 C316.256,52.0066 316.337,51.6364 316.444,51.439 C316.871,50.2544 317.085,48.9712 317.085,47.5892 L317.085,44.924 C317.085,42.5549 316.711,40.383 315.962,38.409 C315.214,36.237 314.411,34.461 313.556,33.079 C312.058,30.413 310.722,28.39 309.545,27.008 C308.262,25.527 306.497,23.898 304.251,22.122 C301.898,20.147 299.331,18.617 296.55,17.532 C294.411,16.742 291.791,16.199 288.689,15.903 C284.518,15.508 279.758,16.002 274.411,17.384 C273.555,17.581 271.683,18.667 268.795,20.641 C269.116,21.529 269.705,22.442 270.56,23.38 C271.416,24.318 271.951,24.984 272.165,25.379 C272.485,25.873 272.833,26.317 273.207,26.712 C273.582,27.107 274.09,27.526 274.731,27.97 C275.373,28.415 275.854,28.735 276.175,28.933 C275.961,29.426 275.774,30.019 275.614,30.71 C275.453,31.401 275.32,31.845 275.213,32.042 C273.395,37.175 271.79,42.703 270.4,48.6257 C270.293,49.0205 270.239,49.5635 270.239,50.2544 C270.239,50.9454 270.186,51.439 270.079,51.7351 C269.972,52.0312 269.838,52.5742 269.678,53.3638 C269.517,54.1535 269.384,54.6964 269.277,54.9926 C268.742,56.8681 268.207,58.941 267.672,61.2114 C267.459,62.2972 267.084,63.8519 266.549,65.8755 C266.015,67.8991 265.694,69.2564 265.587,69.9474 C264.731,74.6855 264.25,77.1533 264.143,77.3507 C264.036,77.8443 263.555,79.8679 262.699,83.4215 L261.255,91.8613 C261.148,92.3549 260.961,93.3173 260.694,94.7486 C260.426,96.1799 260.239,97.2904 260.132,98.0801 C260.132,98.2776 259.972,99.314 259.651,101.1895 C259.33,103.0651 259.17,104.447 259.17,105.3354 L259.17,105.9277 C258.849,106.52 258.581,108.0006 258.367,110.3697 C258.367,110.962 258.261,111.9491 258.047,113.3311 C257.833,114.4169 257.405,115.2066 256.763,115.7001 C253.982,117.8718 252.057,119.846 250.988,121.6228 C249.169,124.6829 248.207,126.361 248.1,126.6571 C248.956,126.0648 249.383,126.3116 249.383,127.3974 C250.881,126.8052 251.95,126.4103 252.592,126.2129 C252.699,126.2129 252.859,126.1635 253.073,126.0648 C253.287,125.9661 253.474,125.8921 253.635,125.8427 C253.795,125.7934 253.982,125.7687 254.196,125.7687 C254.41,125.7687 254.571,125.8674 254.678,126.0648 C254.785,125.9661 254.891,125.9168 254.998,125.9168 C256.068,125.1271 256.817,124.5842 257.244,124.288 C257.886,124.0906 258.261,123.9919 258.367,123.9919 L260.774,123.9919 C261.95,123.9919 262.966,123.1528 263.822,121.4748 L264.303,120.1421 C264.41,119.5499 264.731,119.3525 265.266,119.5499 C265.266,120.0434 265.319,120.4383 265.426,120.7344 Z M288.689,85.1983 C288.903,85.3957 289.063,85.5931 289.17,85.7906 C289.063,85.7906 288.956,85.8399 288.849,85.9386 L288.849,85.1983 C288.635,85.3957 288.315,85.7906 287.887,86.3828 C287.673,86.5803 287.566,86.827 287.566,87.1232 C287.673,87.6167 287.646,88.0362 287.486,88.3817 C287.325,88.7272 287.138,88.974 286.924,89.1221 C286.71,89.2701 286.47,89.4676 286.202,89.7143 C285.935,89.9611 285.748,90.1832 285.641,90.3806 L285.48,90.5287 C284.839,90.8248 284.464,91.0716 284.357,91.269 C284.25,91.4665 284.25,92.0094 284.357,92.8978 C284.25,92.8978 284.117,92.9225 283.956,92.9718 C283.796,93.0212 283.662,93.0459 283.555,93.0459 C283.234,93.0459 282.967,93.0952 282.753,93.1939 C283.074,93.9836 282.967,94.7239 282.432,95.4149 C282.111,95.8098 281.202,96.945 279.705,98.8205 C279.491,99.1166 279.17,99.4868 278.742,99.931 C278.314,100.3752 278.1,100.6466 278.1,100.7453 L277.94,100.7453 C277.084,102.0286 275.961,103.0651 274.571,103.8548 C274.464,103.9535 274.33,104.1756 274.17,104.5211 C274.01,104.8666 273.876,105.0887 273.769,105.1874 C272.058,107.8526 270.239,109.7281 268.314,110.8139 C267.779,111.0113 267.459,111.0113 267.352,110.8139 C267.138,110.4191 267.138,109.9749 267.352,109.4813 C267.352,109.1852 267.432,108.741 267.592,108.1487 C267.753,107.5564 267.886,107.0629 267.993,106.668 C268.956,102.8183 269.705,99.6102 270.239,97.0437 L270.721,93.9343 C270.828,92.3549 271.095,90.3313 271.523,87.8635 C271.951,85.1983 272.325,83.076 272.646,81.4966 C273.395,77.5482 274.09,74.3894 274.731,72.0203 C274.731,71.8229 274.785,71.5021 274.892,71.0579 C274.999,70.6137 275.106,70.2929 275.213,70.0954 L276.657,65.2092 L277.619,62.544 C278.368,60.6685 279.705,56.5226 281.63,50.1064 C282.165,48.3296 282.967,45.5656 284.036,41.815 L284.036,41.518 C284.143,41.321 284.197,41.173 284.197,41.074 C284.304,40.285 285.373,36.583 287.406,29.969 C287.726,28.883 288.261,28.34 289.01,28.34 C293.395,28.538 296.015,28.785 296.871,29.081 C300.187,29.969 302.807,32.289 304.732,36.04 C305.053,36.83 305.213,37.718 305.213,38.705 C304.999,43.6408 304.304,48.2308 303.128,52.4754 C301.63,58.0033 299.598,63.5311 297.031,69.059 C296.817,69.7499 295.374,72.7606 292.7,78.0911 C292.165,79.2756 291.095,81.1511 289.491,83.7176 L288.689,85.1983 Z M284.036,97.1917 C283.929,97.3892 283.823,97.5372 283.716,97.6359 L283.555,97.4879 L283.716,97.3398 L283.716,97.0437 L283.876,97.1917 L284.036,97.1917 Z" id="Fill-7" fill="#FFFFFF"></path>
            <path d="M336.372,20.465 C336.372,21.057 336.319,21.452 336.212,21.649 C335.784,23.031 335.089,25.005 334.126,27.572 C333.163,30.138 332.522,31.915 332.201,32.902 C330.062,38.628 328.511,42.971 327.548,45.9323 C325.516,52.7434 323.965,59.2583 322.896,65.4772 C322.361,68.0437 321.666,71.9921 320.81,77.3225 C320.275,80.6787 313.221,107.975 311.296,114.4899 C311.296,114.5886 311.243,114.9341 311.136,115.5264 C311.029,116.1187 310.922,116.6122 310.815,117.0071 C310.708,117.3032 310.521,117.7227 310.253,118.2656 C309.986,118.8085 309.799,119.2281 309.692,119.5242 C308.515,122.9791 307.874,124.8546 307.767,125.1508 C306.483,127.9147 304.772,130.5305 302.633,132.9983 C302.205,133.5906 301.777,133.8867 301.349,133.8867 C299.317,133.8867 297.927,133.5412 297.178,132.8503 C296.75,132.4554 296.537,132.1593 296.537,131.9618 C296.643,131.1722 296.697,130.1604 296.697,128.9265 L296.697,126.0392 C296.804,125.2495 296.964,124.4104 297.178,123.522 C297.392,122.6336 297.66,121.6712 297.98,120.6347 C298.301,119.5982 298.515,118.7839 298.622,118.1916 C298.622,118.0929 298.729,117.7474 298.943,117.1551 C299.157,116.5629 299.21,116.1187 299.103,115.8225 C298.996,115.5264 299.103,114.7367 299.424,113.4535 C299.852,112.3676 300.119,111.6766 300.226,111.3805 C300.44,109.8011 299.799,109.0114 298.301,109.0114 C297.018,108.814 296.109,109.6037 295.574,111.3805 C294.825,113.947 294.237,116.1187 293.809,117.8955 C293.381,119.3761 292.847,121.5971 292.205,124.5585 L291.242,129.0005 L291.242,129.7408 C291.456,130.037 291.563,130.728 291.563,131.8138 C291.349,133.097 291.777,133.8867 292.847,134.1829 C293.06,134.2816 293.381,134.6271 293.809,135.2193 C294.558,136.7 295.093,137.5884 295.413,137.8845 C296.911,139.2665 298.087,140.2536 298.943,140.8459 C299.05,140.9446 299.424,140.9939 300.066,140.9939 L302.472,140.5497 C302.686,140.451 302.927,140.4017 303.194,140.4017 C303.462,140.4017 303.649,140.3523 303.756,140.2536 C304.398,139.9575 304.986,139.9575 305.521,140.2536 C306.269,140.5497 306.644,140.303 306.644,139.5133 C306.644,139.2171 306.804,138.921 307.125,138.6249 C307.66,138.23 308.489,137.7858 309.612,137.2923 C310.735,136.7987 311.403,136.5026 311.617,136.4039 C311.403,135.9103 311.564,135.318 312.098,134.6271 C312.633,134.2322 313.168,133.6399 313.703,132.8503 C313.917,132.258 314.237,131.3943 314.665,130.2591 C315.093,129.1239 315.414,128.3095 315.628,127.816 C315.842,127.2237 316.002,126.8782 316.109,126.7795 C316.751,126.4834 317.179,125.7924 317.393,124.7066 C318.034,122.7323 318.516,121.301 318.836,120.4126 C319.157,119.4255 319.639,117.9942 320.28,116.1187 C320.922,114.2431 321.35,112.8612 321.564,111.9728 C321.778,111.0844 322.125,109.3569 322.607,106.7904 C323.088,104.2239 329.42,79.889 329.955,78.5071 C330.49,77.0264 331.078,74.9041 331.72,72.1402 C333.217,66.8098 334.393,62.7626 335.249,59.9987 C335.463,59.1103 335.891,57.753 336.532,55.9268 C337.174,54.1007 337.549,52.9902 337.655,52.5953 C338.618,49.5353 339.367,47.413 339.902,46.2284 C340.864,44.1555 341.934,40.972 343.11,36.678 C344.287,32.384 344.928,29.99 345.035,29.497 C345.998,26.634 346.747,23.229 347.281,19.28 C347.495,18.392 347.816,17.849 348.244,17.651 C348.672,17.553 349.34,17.355 350.249,17.059 C351.158,16.763 351.88,16.516 352.415,16.319 L357.228,14.542 C357.763,14.246 358.03,13.95 358.03,13.654 C358.458,12.667 358.298,11.63 357.549,10.544 C356.8,9.458 355.891,8.965 354.822,9.064 C350.116,9.458 346.693,9.656 344.554,9.656 C340.811,9.656 336.158,10.1 330.596,10.988 C330.062,11.087 329.206,11.26 328.03,11.507 C326.853,11.753 325.891,11.926 325.142,12.025 C325.356,13.506 325.784,14.69 326.425,15.579 C326.532,15.677 326.96,16.319 327.709,17.503 C328.564,19.083 329.794,19.922 331.399,20.021 C333.538,20.218 335.196,20.366 336.372,20.465 Z" id="Fill-8" fill="#FFFFFF"></path>
        </g>
    </g>
</svg>