<svg width="334" height="500" xmlns="http://www.w3.org/2000/svg" xmlns:xlink="http://www.w3.org/1999/xlink">
  <defs>
    <path d="M166.576 500c48.2-154.3 106.4-181 150.3-267.1 54.3-106.4-34.4-232.9-150.3-232.9s-204.5 126.5-150.2 232.9c43.8 86.1 102 112.8 150.2 267.1z" id="a"/>
  </defs>
  <g transform="translate(.024)" fill="none" fill-rule="evenodd">
    <mask id="b" fill="#fff">
      <use xlink:href="#a"/>
    </mask>
    <use fill="none" fill-rule="nonzero" xlink:href="#a"/>
    <path fill="#750787" fill-rule="nonzero" mask="url(#b)" d="M-.024 416.667h333V500h-333z"/>
    <path fill="#004DFF" fill-rule="nonzero" mask="url(#b)" d="M-.024 333.333h333v83.333h-333z"/>
    <path fill="#008026" fill-rule="nonzero" mask="url(#b)" d="M-.024 250h333v83.333h-333z"/>
    <path fill="#FFED00" fill-rule="nonzero" mask="url(#b)" d="M-.024 166.667h333V250h-333z"/>
    <path fill="#FF8C00" fill-rule="nonzero" mask="url(#b)" d="M-.024 83.333h333v83.333h-333z"/>
    <path fill="#E40303" fill-rule="nonzero" mask="url(#b)" d="M-.024 0h333v83.333h-333z"/>
    <path d="M131.476 243l-22.7 33.9h22.7V243zm-41.5 34.8l41.4-57.9h18.8v56.9h11.3v16.4h-11.3v16.6h-18.7v-16.6h-41.5v-15.4zM174.976 251.8s-.1-2-.1-4.2c.2-16.2 12-30.2 33-30.2 20.2 0 32.6 13.4 32.6 29.1 0 11.7-6.4 21.2-17.6 28l-17.4 10.6c-3.5 2.2-6.4 4.7-7.8 8.2h43.3v16.6h-66.8c.1-15.9 5.1-28.8 21.3-38.6l14.9-8.9c7.7-4.6 10.7-9.3 10.7-15.6 0-6.6-4.6-12.4-13.7-12.4-9.6 0-14.3 6.5-14.3 15 0 1.7.1 2.4.1 2.4h-18.2zM256.376 175.7l-19.4-14.9c6.9-12 10.9-25.8 10.9-40.7 0-44.9-36.4-81.3-81.3-81.3s-81.3 36.4-81.3 81.3 36.4 81.3 81.3 81.3c20.6 0 39.3-7.6 53.6-20.2l19.8 15.2 16.4-20.7zm-89.8-5.4c-27.7 0-50.1-22.4-50.1-50.1 0-27.7 22.4-50.1 50.1-50.1 27.7 0 50.1 22.4 50.1 50.1 0 7.7-1.7 14.9-4.8 21.4l-21.1-16.2-16.4 20.7 20.3 15.6c-8 5.4-17.7 8.6-28.1 8.6z" fill="#FFF" fill-rule="nonzero" mask="url(#b)"/>
  </g>
</svg>
