<svg width="21" height="31" viewBox="0 0 21 31" fill="none" xmlns="http://www.w3.org/2000/svg">
<path d="M7.56644 7.90639C7.56644 9.52691 8.87689 10.8374 10.4974 10.8374C11.1058 10.8374 11.6733 10.6502 12.1413 10.3342L10.9537 9.4216L11.9132 8.21061L13.1476 9.15834C13.3289 8.77808 13.4284 8.35686 13.4284 7.90639C13.4284 6.28588 12.1179 4.97543 10.4974 4.97543C8.87689 4.97543 7.56644 6.28588 7.56644 7.90639Z" fill="white"/>
<path d="M8.44398 15.0905L7.11597 17.0737H8.44398V15.0905Z" fill="white"/>
<path fill-rule="evenodd" clip-rule="evenodd" d="M16.281 19.068C14.363 21.6067 12.3094 24.3248 10.4974 30.1256C8.68655 24.3286 6.63441 21.6102 4.71907 19.073C3.6519 17.6593 2.6272 16.3019 1.71035 14.4996C-1.46633 8.27496 3.71698 0.874413 10.4974 0.874413C17.2778 0.874413 22.467 8.27496 19.2903 14.4996C18.3724 16.2998 17.3477 17.6562 16.281 19.068ZM14.616 10.2816L15.7509 11.1533L14.7915 12.3643L13.6331 11.475C12.7965 12.2122 11.7026 12.6568 10.4974 12.6568C7.87065 12.6568 5.74116 10.5273 5.74116 7.90054C5.74116 5.27379 7.87065 3.1443 10.4974 3.1443C13.1242 3.1443 15.2536 5.27379 15.2536 7.90054C15.2536 8.77223 15.0196 9.57956 14.616 10.2816ZM10.9888 15.6053C10.9888 15.6053 10.983 15.4883 10.983 15.3596C10.9947 14.4119 11.685 13.5928 12.9135 13.5928C14.0953 13.5928 14.8207 14.3768 14.8207 15.2952C14.8207 15.9797 14.4463 16.5355 13.7911 16.9333L12.7731 17.5534C12.5684 17.6821 12.3987 17.8284 12.3168 18.0331H14.85V19.0043H10.942C10.9479 18.0741 11.2404 17.3194 12.1881 16.7461L13.0598 16.2254C13.5103 15.9563 13.6858 15.6814 13.6858 15.3128C13.6858 14.9267 13.4167 14.5874 12.8843 14.5874C12.3227 14.5874 12.0477 14.9676 12.0477 15.4649C12.0477 15.5644 12.0536 15.6053 12.0536 15.6053H10.9888ZM6.01613 17.1264L8.43812 13.7391H9.53797V17.0679H10.199V18.0273H9.53797V18.9984H8.44398V18.0273H6.01613V17.1264Z" fill="white"/>
</svg>
