<?xml version="1.0" encoding="UTF-8"?>
<svg width="334px" height="500px" viewBox="0 0 334 500" version="1.1" xmlns="http://www.w3.org/2000/svg" xmlns:xlink="http://www.w3.org/1999/xlink">
    <!-- Generator: Sketch 52.5 (67469) - http://www.bohemiancoding.com/sketch -->
    <title>Group</title>
    <desc>Created with Sketch.</desc>
    <defs>
        <path d="M166.6,500 C214.8,345.7 273,319 316.9,232.9 C371.2,126.5 282.5,0 166.6,0 C50.7,0 -37.9,126.5 16.4,232.9 C60.2,319 118.4,345.7 166.6,500 Z" id="path-1"></path>
    </defs>
    <g id="Page-1" stroke="none" stroke-width="1" fill="none" fill-rule="evenodd">
        <g id="Group" transform="translate(-221.000000, 0.000000)">
            <g id="Gay_flag"></g>
            <g id="q42-logo" transform="translate(221.000000, 0.000000)">
                <g id="Rectangle-+-Rectangle-+-Rectangle-+-Rectangle-+-Rectangle-+-Rectangle-Mask">
                    <mask id="mask-2" fill="white">
                        <use xlink:href="#path-1"></use>
                    </mask>
                    <use id="Mask" fill="#FFFFFF" xlink:href="#path-1"></use>
                    <rect id="Rectangle" fill="#750787" mask="url(#mask-2)" x="-221" y="0" width="809" height="500"></rect>
                    <rect id="Rectangle" fill="#004DFF" mask="url(#mask-2)" x="-221" y="0" width="809" height="417"></rect>
                    <rect id="Rectangle" fill="#008026" mask="url(#mask-2)" x="-221" y="0" width="809" height="333"></rect>
                    <rect id="Rectangle" fill="#FFED00" mask="url(#mask-2)" x="-221" y="0" width="809" height="250"></rect>
                    <rect id="Rectangle" fill="#FF8C00" mask="url(#mask-2)" x="-221" y="0" width="809" height="167"></rect>
                    <rect id="Rectangle" fill="#E40303" mask="url(#mask-2)" x="-221" y="0" width="809" height="83"></rect>
                </g>
                <path d="M131.5,243 L108.8,276.9 L131.5,276.9 L131.5,243 Z M90,277.8 L131.4,219.9 L150.2,219.9 L150.2,276.8 L161.5,276.8 L161.5,293.2 L150.2,293.2 L150.2,309.8 L131.5,309.8 L131.5,293.2 L90,293.2 L90,277.8 Z" id="Shape" fill="#FFFFFF" fill-rule="nonzero"></path>
                <path d="M175,251.8 C175,251.8 174.9,249.8 174.9,247.6 C175.1,231.4 186.9,217.4 207.9,217.4 C228.1,217.4 240.5,230.8 240.5,246.5 C240.5,258.2 234.1,267.7 222.9,274.5 L205.5,285.1 C202,287.3 199.1,289.8 197.7,293.3 L241,293.3 L241,309.9 L174.2,309.9 C174.3,294 179.3,281.1 195.5,271.3 L210.4,262.4 C218.1,257.8 221.1,253.1 221.1,246.8 C221.1,240.2 216.5,234.4 207.4,234.4 C197.8,234.4 193.1,240.9 193.1,249.4 C193.1,251.1 193.2,251.8 193.2,251.8 L175,251.8 Z" id="Path" fill="#FFFFFF"></path>
                <path d="M256.4,175.7 L237,160.8 C243.9,148.8 247.9,135 247.9,120.1 C247.9,75.2 211.5,38.8 166.6,38.8 C121.7,38.8 85.3,75.2 85.3,120.1 C85.3,165 121.7,201.4 166.6,201.4 C187.2,201.4 205.9,193.8 220.2,181.2 L240,196.4 L256.4,175.7 Z M166.6,170.3 C138.9,170.3 116.5,147.9 116.5,120.2 C116.5,92.5 138.9,70.1 166.6,70.1 C194.3,70.1 216.7,92.5 216.7,120.2 C216.7,127.9 215,135.1 211.9,141.6 L190.8,125.4 L174.4,146.1 L194.7,161.7 C186.7,167.1 177,170.3 166.6,170.3 Z" id="Shape" fill="#FFFFFF" fill-rule="nonzero"></path>
            </g>
        </g>
    </g>
</svg>