<?xml version="1.0" standalone="no"?>
<!DOCTYPE svg PUBLIC "-//W3C//DTD SVG 20010904//EN"
 "http://www.w3.org/TR/2001/REC-SVG-20010904/DTD/svg10.dtd">
<svg version="1.0" xmlns="http://www.w3.org/2000/svg"
 width="1024.000000pt" height="1024.000000pt" viewBox="0 0 1024.000000 1024.000000"
 preserveAspectRatio="xMidYMid meet">
<metadata>
Created by potrace 1.11, written by Peter Selinger 2001-2013
</metadata>
<g transform="translate(0.000000,1024.000000) scale(0.100000,-0.100000)"
fill="#000000" stroke="none">
<path d="M0 5120 l0 -5120 5120 0 5120 0 0 5120 0 5120 -5120 0 -5120 0 0
-5120z m5216 3569 c890 -87 1632 -711 1868 -1571 59 -215 71 -314 70 -573 0
-251 -11 -340 -64 -541 -39 -149 -79 -253 -152 -407 -34 -70 -59 -129 -57
-130 2 -2 114 -88 249 -191 135 -103 246 -192 248 -196 3 -8 -200 -270 -384
-497 l-42 -52 -183 141 c-101 78 -219 168 -261 200 l-77 59 -78 -62 c-120 -96
-245 -175 -394 -248 -822 -408 -1821 -242 -2469 409 -539 542 -750 1316 -560
2059 154 603 583 1124 1150 1398 344 167 754 240 1136 202z m1143 -4728 c348
-87 579 -352 607 -694 8 -100 -14 -236 -52 -333 -56 -139 -173 -285 -311 -386
-34 -25 -180 -117 -323 -204 -144 -88 -287 -179 -318 -204 -50 -41 -122 -129
-122 -151 0 -5 243 -9 570 -9 l570 0 0 -220 0 -220 -882 2 -883 3 3 75 c15
364 157 649 423 849 43 33 185 123 316 201 339 203 400 252 458 368 45 90 50
223 12 315 -25 58 -91 121 -160 153 -56 26 -72 29 -172 29 -100 0 -116 -3
-172 -29 -75 -34 -135 -95 -171 -174 -20 -44 -26 -77 -30 -154 l-5 -98 -241 2
-241 3 2 103 c6 415 261 707 687 788 102 19 327 11 435 -15z m-1779 -801 l0
-750 150 0 150 0 0 -220 0 -220 -150 0 -150 0 0 -220 0 -220 -245 0 -245 0 0
220 0 220 -550 0 -550 0 0 203 0 204 547 766 548 767 247 0 248 0 0 -750z"/>
<path d="M4785 7854 c-551 -97 -991 -539 -1080 -1084 -19 -122 -19 -318 0
-440 67 -408 337 -775 711 -963 192 -98 375 -140 594 -140 150 1 273 19 401
59 93 29 269 112 312 147 l27 22 -260 199 c-143 109 -262 202 -265 206 -4 7
372 491 413 532 16 15 35 3 290 -193 150 -116 276 -207 281 -204 15 9 70 158
91 248 42 178 44 401 5 585 -110 524 -548 941 -1075 1027 -117 18 -336 18
-445 -1z"/>
<path d="M3795 2864 c-159 -240 -291 -440 -293 -445 -2 -5 122 -9 292 -9 l296
0 0 445 c0 245 -1 445 -2 445 -2 0 -133 -197 -293 -436z"/>
</g>
</svg>
